<svg xmlns="http://www.w3.org/2000/svg" xmlns:xlink="http://www.w3.org/1999/xlink" xmlns:lucid="lucid" width="1816" height="1390"><g transform="translate(0 -1260)" lucid:page-tab-id="0_0"><path d="M300 1498a6 6 0 0 1 6-6h528a6 6 0 0 1 6 6v483a6 6 0 0 1-6 6H306a6 6 0 0 1-6-6z" stroke="#5e5e5e" stroke-width="3" fill="#fff"/><path d="M300 1534.67h540M300 1770.1h540" stroke="#5e5e5e" stroke-width="3" fill="none"/><use xlink:href="#a" transform="matrix(1,0,0,1,308,1500) translate(221.93827160493828 17.944444444444443)"/><use xlink:href="#b" transform="matrix(1,0,0,1,312,1542.6666666666667) translate(0 33.55555555555556)"/><use xlink:href="#c" transform="matrix(1,0,0,1,312,1542.6666666666667) translate(13.518518518518519 33.55555555555556)"/><use xlink:href="#d" transform="matrix(1,0,0,1,312,1542.6666666666667) translate(54.314814814814824 33.55555555555556)"/><use xlink:href="#b" transform="matrix(1,0,0,1,312,1542.6666666666667) translate(0 62.88888888888889)"/><use xlink:href="#e" transform="matrix(1,0,0,1,312,1542.6666666666667) translate(13.518518518518519 62.88888888888889)"/><use xlink:href="#f" transform="matrix(1,0,0,1,312,1542.6666666666667) translate(126.15432098765434 62.88888888888889)"/><use xlink:href="#b" transform="matrix(1,0,0,1,312,1542.6666666666667) translate(0 90.44444444444446)"/><use xlink:href="#g" transform="matrix(1,0,0,1,312,1542.6666666666667) translate(13.518518518518519 90.44444444444446)"/><use xlink:href="#h" transform="matrix(1,0,0,1,312,1542.6666666666667) translate(145.30864197530866 90.44444444444446)"/><use xlink:href="#i" transform="matrix(1,0,0,1,312,1542.6666666666667) translate(205.67901234567904 90.44444444444446)"/><use xlink:href="#j" transform="matrix(1,0,0,1,312,1542.6666666666667) translate(217.5925925925926 90.44444444444446)"/><use xlink:href="#b" transform="matrix(1,0,0,1,312,1542.6666666666667) translate(0 117.11111111111111)"/><use xlink:href="#k" transform="matrix(1,0,0,1,312,1542.6666666666667) translate(13.518518518518519 117.11111111111111)"/><use xlink:href="#l" transform="matrix(1,0,0,1,312,1542.6666666666667) translate(118.20987654320989 117.11111111111111)"/><use xlink:href="#i" transform="matrix(1,0,0,1,312,1542.6666666666667) translate(171.23456790123458 117.11111111111111)"/><use xlink:href="#j" transform="matrix(1,0,0,1,312,1542.6666666666667) translate(183.14814814814815 117.11111111111111)"/><use xlink:href="#b" transform="matrix(1,0,0,1,312,1542.6666666666667) translate(0 143.7777777777778)"/><use xlink:href="#m" transform="matrix(1,0,0,1,312,1542.6666666666667) translate(13.518518518518519 143.7777777777778)"/><use xlink:href="#n" transform="matrix(1,0,0,1,312,1542.6666666666667) translate(193.39506172839504 143.7777777777778)"/><use xlink:href="#b" transform="matrix(1,0,0,1,312,1542.6666666666667) translate(0 170.44444444444446)"/><use xlink:href="#o" transform="matrix(1,0,0,1,312,1542.6666666666667) translate(13.518518518518519 170.44444444444446)"/><use xlink:href="#p" transform="matrix(1,0,0,1,312,1542.6666666666667) translate(145.4320987654321 170.44444444444446)"/><use xlink:href="#b" transform="matrix(1,0,0,1,312,1542.6666666666667) translate(0 197.11111111111111)"/><use xlink:href="#q" transform="matrix(1,0,0,1,312,1542.6666666666667) translate(13.518518518518519 197.11111111111111)"/><use xlink:href="#r" transform="matrix(1,0,0,1,312,1542.6666666666667) translate(115.8641975308642 197.11111111111111)"/><g><use xlink:href="#s" transform="matrix(1,0,0,1,312,1778.1000000000001) translate(0 33.3888888888889)"/><use xlink:href="#t" transform="matrix(1,0,0,1,312,1778.1000000000001) translate(19.1358024691358 33.3888888888889)"/><use xlink:href="#u" transform="matrix(1,0,0,1,312,1778.1000000000001) translate(88.32716049382717 33.3888888888889)"/><use xlink:href="#v" transform="matrix(1,0,0,1,312,1778.1000000000001) translate(114.92592592592592 33.3888888888889)"/><use xlink:href="#b" transform="matrix(1,0,0,1,312,1778.1000000000001) translate(0 62.722222222222236)"/><use xlink:href="#w" transform="matrix(1,0,0,1,312,1778.1000000000001) translate(13.518518518518519 62.722222222222236)"/><use xlink:href="#x" transform="matrix(1,0,0,1,312,1778.1000000000001) translate(126.03086419753089 62.722222222222236)"/><use xlink:href="#y" transform="matrix(1,0,0,1,312,1778.1000000000001) translate(146.4567901234568 62.722222222222236)"/><use xlink:href="#s" transform="matrix(1,0,0,1,312,1778.1000000000001) translate(0 92.05555555555557)"/><use xlink:href="#z" transform="matrix(1,0,0,1,312,1778.1000000000001) translate(19.1358024691358 92.05555555555557)"/><use xlink:href="#A" transform="matrix(1,0,0,1,312,1778.1000000000001) translate(211.50000000000006 92.05555555555557)"/><use xlink:href="#B" transform="matrix(1,0,0,1,312,1778.1000000000001) translate(364.2654320987655 92.05555555555557)"/><use xlink:href="#i" transform="matrix(1,0,0,1,312,1778.1000000000001) translate(444.3888888888889 92.05555555555557)"/><use xlink:href="#C" transform="matrix(1,0,0,1,312,1778.1000000000001) translate(456.3024691358025 92.05555555555557)"/><use xlink:href="#s" transform="matrix(1,0,0,1,312,1778.1000000000001) translate(0 121.3888888888889)"/><use xlink:href="#D" transform="matrix(1,0,0,1,312,1778.1000000000001) translate(19.1358024691358 121.3888888888889)"/><use xlink:href="#E" transform="matrix(1,0,0,1,312,1778.1000000000001) translate(226.37037037037044 121.3888888888889)"/><use xlink:href="#F" transform="matrix(1,0,0,1,312,1778.1000000000001) translate(379.1358024691359 121.3888888888889)"/><use xlink:href="#G" transform="matrix(1,0,0,1,312,1778.1000000000001) translate(465.4320987654322 121.3888888888889)"/><use xlink:href="#H" transform="matrix(1,0,0,1,312,1778.1000000000001) translate(477.7777777777779 121.3888888888889)"/><use xlink:href="#C" transform="matrix(1,0,0,1,312,1778.1000000000001) translate(0 148.94444444444446)"/><use xlink:href="#s" transform="matrix(1,0,0,1,312,1778.1000000000001) translate(0 177.3888888888889)"/><use xlink:href="#I" transform="matrix(1,0,0,1,312,1778.1000000000001) translate(19.1358024691358 177.3888888888889)"/><use xlink:href="#J" transform="matrix(1,0,0,1,312,1778.1000000000001) translate(207.49382716049388 177.3888888888889)"/><use xlink:href="#K" transform="matrix(1,0,0,1,312,1778.1000000000001) translate(360.25925925925935 177.3888888888889)"/></g><path d="M1000 2146a6 6 0 0 1 6-6h528a6 6 0 0 1 6 6v294a6 6 0 0 1-6 6h-528a6 6 0 0 1-6-6z" stroke="#5e5e5e" stroke-width="3" fill="#fff"/><path d="M1000 2182.67h540m-540 72.76h540" stroke="#5e5e5e" stroke-width="3" fill="none"/><g><use xlink:href="#L" transform="matrix(1,0,0,1,1008,2148) translate(169.00617283950618 17.944444444444443)"/></g><g><use xlink:href="#b" transform="matrix(1,0,0,1,1012,2190.6666666666665) translate(0 33.388888888888886)"/><use xlink:href="#M" transform="matrix(1,0,0,1,1012,2190.6666666666665) translate(13.518518518518519 33.388888888888886)"/><use xlink:href="#N" transform="matrix(1,0,0,1,1012,2190.6666666666665) translate(193.9876543209877 33.388888888888886)"/></g><g><use xlink:href="#s" transform="matrix(1,0,0,1,1012,2263.4333333333334) translate(0 33.722222222222214)"/><use xlink:href="#O" transform="matrix(1,0,0,1,1012,2263.4333333333334) translate(19.1358024691358 33.722222222222214)"/><use xlink:href="#P" transform="matrix(1,0,0,1,1012,2263.4333333333334) translate(135.65432098765436 33.722222222222214)"/><use xlink:href="#Q" transform="matrix(1,0,0,1,1012,2263.4333333333334) translate(240.1543209876544 33.722222222222214)"/><use xlink:href="#R" transform="matrix(1,0,0,1,1012,2263.4333333333334) translate(287.6172839506174 33.722222222222214)"/><use xlink:href="#S" transform="matrix(1,0,0,1,1012,2263.4333333333334) translate(424.14814814814827 33.722222222222214)"/><use xlink:href="#s" transform="matrix(1,0,0,1,1012,2263.4333333333334) translate(0 63.05555555555555)"/><use xlink:href="#T" transform="matrix(1,0,0,1,1012,2263.4333333333334) translate(19.1358024691358 63.05555555555555)"/><use xlink:href="#P" transform="matrix(1,0,0,1,1012,2263.4333333333334) translate(155.8888888888889 63.05555555555555)"/><use xlink:href="#Q" transform="matrix(1,0,0,1,1012,2263.4333333333334) translate(260.3888888888889 63.05555555555555)"/><use xlink:href="#U" transform="matrix(1,0,0,1,1012,2263.4333333333334) translate(307.8518518518519 63.05555555555555)"/><use xlink:href="#S" transform="matrix(1,0,0,1,1012,2263.4333333333334) translate(437.2222222222223 63.05555555555555)"/><use xlink:href="#s" transform="matrix(1,0,0,1,1012,2263.4333333333334) translate(0 92.38888888888889)"/><use xlink:href="#V" transform="matrix(1,0,0,1,1012,2263.4333333333334) translate(19.1358024691358 92.38888888888889)"/><use xlink:href="#P" transform="matrix(1,0,0,1,1012,2263.4333333333334) translate(139.72839506172843 92.38888888888889)"/><use xlink:href="#Q" transform="matrix(1,0,0,1,1012,2263.4333333333334) translate(244.22839506172846 92.38888888888889)"/><use xlink:href="#W" transform="matrix(1,0,0,1,1012,2263.4333333333334) translate(291.69135802469145 92.38888888888889)"/><use xlink:href="#X" transform="matrix(1,0,0,1,1012,2263.4333333333334) translate(422.04938271604954 92.38888888888889)"/><use xlink:href="#s" transform="matrix(1,0,0,1,1012,2263.4333333333334) translate(0 121.72222222222221)"/><use xlink:href="#Y" transform="matrix(1,0,0,1,1012,2263.4333333333334) translate(19.1358024691358 121.72222222222221)"/><use xlink:href="#P" transform="matrix(1,0,0,1,1012,2263.4333333333334) translate(138.3703703703704 121.72222222222221)"/><use xlink:href="#Q" transform="matrix(1,0,0,1,1012,2263.4333333333334) translate(242.87037037037044 121.72222222222221)"/><use xlink:href="#Z" transform="matrix(1,0,0,1,1012,2263.4333333333334) translate(290.3333333333334 121.72222222222221)"/><use xlink:href="#S" transform="matrix(1,0,0,1,1012,2263.4333333333334) translate(420.69135802469145 121.72222222222221)"/><use xlink:href="#s" transform="matrix(1,0,0,1,1012,2263.4333333333334) translate(0 151.05555555555554)"/><use xlink:href="#aa" transform="matrix(1,0,0,1,1012,2263.4333333333334) translate(19.1358024691358 151.05555555555554)"/><use xlink:href="#P" transform="matrix(1,0,0,1,1012,2263.4333333333334) translate(146.51851851851856 151.05555555555554)"/><use xlink:href="#Q" transform="matrix(1,0,0,1,1012,2263.4333333333334) translate(251.0185185185186 151.05555555555554)"/><use xlink:href="#ab" transform="matrix(1,0,0,1,1012,2263.4333333333334) translate(298.4814814814816 151.05555555555554)"/><use xlink:href="#ac" transform="matrix(1,0,0,1,1012,2263.4333333333334) translate(428.8395061728396 151.05555555555554)"/></g><path d="M1000 1540.5a6 6 0 0 1 6-6h528a6 6 0 0 1 6 6v398a6 6 0 0 1-6 6h-528a6 6 0 0 1-6-6z" stroke="#5e5e5e" stroke-width="3" fill="#fff"/><path d="M1000 1577.17h540m-540 235.43h540" stroke="#5e5e5e" stroke-width="3" fill="none"/><g><use xlink:href="#ad" transform="matrix(1,0,0,1,1008,1542.5) translate(183.75925925925927 17.944444444444443)"/></g><g><use xlink:href="#ae" transform="matrix(1,0,0,1,1012,1585.1666666666667) translate(0 33.55555555555556)"/><use xlink:href="#af" transform="matrix(1,0,0,1,1012,1585.1666666666667) translate(13.518518518518519 33.55555555555556)"/><use xlink:href="#d" transform="matrix(1,0,0,1,1012,1585.1666666666667) translate(66.66049382716051 33.55555555555556)"/><use xlink:href="#ae" transform="matrix(1,0,0,1,1012,1585.1666666666667) translate(0 62.88888888888889)"/><use xlink:href="#ag" transform="matrix(1,0,0,1,1012,1585.1666666666667) translate(13.518518518518519 62.88888888888889)"/><use xlink:href="#f" transform="matrix(1,0,0,1,1012,1585.1666666666667) translate(138.50000000000003 62.88888888888889)"/><use xlink:href="#ae" transform="matrix(1,0,0,1,1012,1585.1666666666667) translate(0 90.44444444444446)"/><use xlink:href="#ah" transform="matrix(1,0,0,1,1012,1585.1666666666667) translate(13.518518518518519 90.44444444444446)"/><use xlink:href="#h" transform="matrix(1,0,0,1,1012,1585.1666666666667) translate(157.65432098765427 90.44444444444446)"/><use xlink:href="#i" transform="matrix(1,0,0,1,1012,1585.1666666666667) translate(218.02469135802465 90.44444444444446)"/><use xlink:href="#j" transform="matrix(1,0,0,1,1012,1585.1666666666667) translate(229.93827160493822 90.44444444444446)"/><use xlink:href="#ae" transform="matrix(1,0,0,1,1012,1585.1666666666667) translate(0 117.11111111111111)"/><use xlink:href="#ai" transform="matrix(1,0,0,1,1012,1585.1666666666667) translate(13.518518518518519 117.11111111111111)"/><use xlink:href="#l" transform="matrix(1,0,0,1,1012,1585.1666666666667) translate(130.55555555555557 117.11111111111111)"/><use xlink:href="#i" transform="matrix(1,0,0,1,1012,1585.1666666666667) translate(183.58024691358025 117.11111111111111)"/><use xlink:href="#j" transform="matrix(1,0,0,1,1012,1585.1666666666667) translate(195.49382716049382 117.11111111111111)"/><use xlink:href="#ae" transform="matrix(1,0,0,1,1012,1585.1666666666667) translate(0 143.7777777777778)"/><use xlink:href="#aj" transform="matrix(1,0,0,1,1012,1585.1666666666667) translate(13.518518518518519 143.7777777777778)"/><use xlink:href="#n" transform="matrix(1,0,0,1,1012,1585.1666666666667) translate(205.7407407407407 143.7777777777778)"/><use xlink:href="#ae" transform="matrix(1,0,0,1,1012,1585.1666666666667) translate(0 170.44444444444446)"/><use xlink:href="#ak" transform="matrix(1,0,0,1,1012,1585.1666666666667) translate(13.518518518518519 170.44444444444446)"/><use xlink:href="#p" transform="matrix(1,0,0,1,1012,1585.1666666666667) translate(157.77777777777777 170.44444444444446)"/><use xlink:href="#ae" transform="matrix(1,0,0,1,1012,1585.1666666666667) translate(0 197.11111111111111)"/><use xlink:href="#al" transform="matrix(1,0,0,1,1012,1585.1666666666667) translate(13.518518518518519 197.11111111111111)"/><use xlink:href="#r" transform="matrix(1,0,0,1,1012,1585.1666666666667) translate(128.20987654320987 197.11111111111111)"/></g><g><use xlink:href="#s" transform="matrix(1,0,0,1,1012,1820.6000000000001) translate(0 33.55555555555556)"/><use xlink:href="#am" transform="matrix(1,0,0,1,1012,1820.6000000000001) translate(19.1358024691358 33.55555555555556)"/><use xlink:href="#an" transform="matrix(1,0,0,1,1012,1820.6000000000001) translate(92.33333333333334 33.55555555555556)"/><use xlink:href="#S" transform="matrix(1,0,0,1,1012,1820.6000000000001) translate(118.9320987654321 33.55555555555556)"/><use xlink:href="#s" transform="matrix(1,0,0,1,1012,1820.6000000000001) translate(0 62.88888888888889)"/><use xlink:href="#ao" transform="matrix(1,0,0,1,1012,1820.6000000000001) translate(19.1358024691358 62.88888888888889)"/><use xlink:href="#ap" transform="matrix(1,0,0,1,1012,1820.6000000000001) translate(92.19753086419755 62.88888888888889)"/><use xlink:href="#B" transform="matrix(1,0,0,1,1012,1820.6000000000001) translate(112.620987654321 62.88888888888889)"/><use xlink:href="#i" transform="matrix(1,0,0,1,1012,1820.6000000000001) translate(192.74444444444447 62.88888888888889)"/><use xlink:href="#j" transform="matrix(1,0,0,1,1012,1820.6000000000001) translate(204.65802469135804 62.88888888888889)"/><use xlink:href="#b" transform="matrix(1,0,0,1,1012,1820.6000000000001) translate(0 92.22222222222223)"/><use xlink:href="#aq" transform="matrix(1,0,0,1,1012,1820.6000000000001) translate(13.518518518518519 92.22222222222223)"/><use xlink:href="#ar" transform="matrix(1,0,0,1,1012,1820.6000000000001) translate(132.87654320987656 92.22222222222223)"/></g><path d="M1270 2137.5v-160.75" stroke="#5e5e5e" stroke-width="2" fill="none"/><path d="M1271 2138.5h-2v-1.03h2z" stroke="#5e5e5e" stroke-width=".05" fill="#5e5e5e"/><path d="M1270 1947.4l14.85 14.86-14.85 15.15-14.85-15.14z" stroke="#5e5e5e" stroke-width="2" fill="#5e5e5e"/><path d="M997.5 1739.5H872.25" stroke="#5e5e5e" stroke-width="2" fill="none"/><path d="M998.5 1740.5h-1.03v-2h1.03z" stroke="#5e5e5e" stroke-width=".05" fill="#5e5e5e"/><path d="M842.9 1739.5l14.86-14.85 15.15 14.85-15.14 14.85z" stroke="#5e5e5e" stroke-width="2" fill="#5e5e5e"/><defs><path fill="#333" d="M199 0l-22-63H83L61 0H9l90-248h61L250 0h-51zm-33-102l-36-108c-10 38-24 72-36 108h72" id="as"/><path fill="#333" d="M135-194c87-1 58 113 63 194h-50c-7-57 23-157-34-157-59 0-34 97-39 157H25l-1-190h47c2 12-1 28 3 38 12-26 28-41 61-42" id="at"/><path fill="#333" d="M137-138c1-29-70-34-71-4 15 46 118 7 119 86 1 83-164 76-172 9l43-7c4 19 20 25 44 25 33 8 57-30 24-41C81-84 22-81 20-136c-2-80 154-74 161-7" id="au"/><path fill="#333" d="M231 0h-52l-39-155L100 0H48L-1-190h46L77-45c9-52 24-97 36-145h53l37 145 32-145h46" id="av"/><path fill="#333" d="M185-48c-13 30-37 53-82 52C43 2 14-33 14-96s30-98 90-98c62 0 83 45 84 108H66c0 31 8 55 39 56 18 0 30-7 34-22zm-45-69c5-46-57-63-70-21-2 6-4 13-4 21h74" id="aw"/><path fill="#333" d="M135-150c-39-12-60 13-60 57V0H25l-1-190h47c2 13-1 29 3 40 6-28 27-53 61-41v41" id="ax"/><g id="a"><use transform="matrix(0.06172839506172839,0,0,0.06172839506172839,0,0)" xlink:href="#as"/><use transform="matrix(0.06172839506172839,0,0,0.06172839506172839,15.987654320987653,0)" xlink:href="#at"/><use transform="matrix(0.06172839506172839,0,0,0.06172839506172839,29.50617283950617,0)" xlink:href="#au"/><use transform="matrix(0.06172839506172839,0,0,0.06172839506172839,41.85185185185185,0)" xlink:href="#av"/><use transform="matrix(0.06172839506172839,0,0,0.06172839506172839,59.1358024691358,0)" xlink:href="#aw"/><use transform="matrix(0.06172839506172839,0,0,0.06172839506172839,71.48148148148148,0)" xlink:href="#ax"/></g><path fill="#333" d="M16-82v-28h88v28H16" id="ay"/><use transform="matrix(0.06172839506172839,0,0,0.06172839506172839,0,0)" xlink:href="#ay" id="b"/><path fill="#282c33" d="M25-224v-37h50v37H25zM25 0v-190h50V0H25" id="az"/><path fill="#282c33" d="M88-194c31-1 46 15 58 34l-1-101h50l1 261h-48c-2-10 0-23-3-31C134-8 116 4 84 4 32 4 16-41 15-95c0-56 19-97 73-99zm17 164c33 0 40-30 41-66 1-37-9-64-41-64s-38 30-39 65c0 43 13 65 39 65" id="aA"/><path fill="#333" d="M33-154v-36h34v36H33zM33 0v-36h34V0H33" id="aB"/><g id="c"><use transform="matrix(0.06790123456790124,0,0,0.06790123456790124,0,0)" xlink:href="#az"/><use transform="matrix(0.06790123456790124,0,0,0.06790123456790124,6.790123456790124,0)" xlink:href="#aA"/><use transform="matrix(0.06172839506172839,0,0,0.06172839506172839,21.660493827160497,0)" xlink:href="#aB"/></g><path fill="#282c33" d="M135-143c-3-34-86-38-87 0 15 53 115 12 119 90S17 21 10-45l28-5c4 36 97 45 98 0-10-56-113-15-118-90-4-57 82-63 122-42 12 7 21 19 24 35" id="aC"/><path fill="#282c33" d="M59-47c-2 24 18 29 38 22v24C64 9 27 4 27-40v-127H5v-23h24l9-43h21v43h35v23H59v120" id="aD"/><path fill="#282c33" d="M114-163C36-179 61-72 57 0H25l-1-190h30c1 12-1 29 2 39 6-27 23-49 58-41v29" id="aE"/><path fill="#282c33" d="M24-231v-30h32v30H24zM24 0v-190h32V0H24" id="aF"/><path fill="#282c33" d="M117-194c89-4 53 116 60 194h-32v-121c0-31-8-49-39-48C34-167 62-67 57 0H25l-1-190h30c1 10-1 24 2 32 11-22 29-35 61-36" id="aG"/><path fill="#282c33" d="M177-190C167-65 218 103 67 71c-23-6-38-20-44-43l32-5c15 47 100 32 89-28v-30C133-14 115 1 83 1 29 1 15-40 15-95c0-56 16-97 71-98 29-1 48 16 59 35 1-10 0-23 2-32h30zM94-22c36 0 50-32 50-73 0-42-14-75-50-75-39 0-46 34-46 75s6 73 46 73" id="aH"/><g id="d"><use transform="matrix(0.06790123456790124,0,0,0.06790123456790124,0,0)" xlink:href="#aC"/><use transform="matrix(0.06790123456790124,0,0,0.06790123456790124,12.222222222222223,0)" xlink:href="#aD"/><use transform="matrix(0.06790123456790124,0,0,0.06790123456790124,19.01234567901235,0)" xlink:href="#aE"/><use transform="matrix(0.06790123456790124,0,0,0.06790123456790124,27.092592592592595,0)" xlink:href="#aF"/><use transform="matrix(0.06790123456790124,0,0,0.06790123456790124,32.45679012345679,0)" xlink:href="#aG"/><use transform="matrix(0.06790123456790124,0,0,0.06790123456790124,46.03703703703704,0)" xlink:href="#aH"/></g><path fill="#282c33" d="M115-3C79 11 28 4 28-45v-112H4v-33h27l15-45h31v45h36v33H77v99c-1 23 16 31 38 25v30" id="aI"/><path fill="#282c33" d="M185-48c-13 30-37 53-82 52C43 2 14-33 14-96s30-98 90-98c62 0 83 45 84 108H66c0 31 8 55 39 56 18 0 30-7 34-22zm-45-69c5-46-57-63-70-21-2 6-4 13-4 21h74" id="aJ"/><path fill="#282c33" d="M220-157c-53 9-28 100-34 157h-49v-107c1-27-5-49-29-50C55-147 81-57 75 0H25l-1-190h47c2 12-1 28 3 38 10-53 101-56 108 0 13-22 24-43 59-42 82 1 51 116 57 194h-49v-107c-1-25-5-48-29-50" id="aK"/><path fill="#282c33" d="M135-194c53 0 70 44 70 98 0 56-19 98-73 100-31 1-45-17-59-34 3 33 2 69 2 105H25l-1-265h48c2 10 0 23 3 31 11-24 29-35 60-35zM114-30c33 0 39-31 40-66 0-38-9-64-40-64-56 0-55 130 0 130" id="aL"/><path fill="#282c33" d="M25 0v-261h50V0H25" id="aM"/><path fill="#282c33" d="M133-34C117-15 103 5 69 4 32 3 11-16 11-54c-1-60 55-63 116-61 1-26-3-47-28-47-18 1-26 9-28 27l-52-2c7-38 36-58 82-57s74 22 75 68l1 82c-1 14 12 18 25 15v27c-30 8-71 5-69-32zm-48 3c29 0 43-24 42-57-32 0-66-3-65 30 0 17 8 27 23 27" id="aN"/><g id="e"><use transform="matrix(0.06790123456790124,0,0,0.06790123456790124,0,0)" xlink:href="#aI"/><use transform="matrix(0.06790123456790124,0,0,0.06790123456790124,8.080246913580249,0)" xlink:href="#aJ"/><use transform="matrix(0.06790123456790124,0,0,0.06790123456790124,21.660493827160497,0)" xlink:href="#aK"/><use transform="matrix(0.06790123456790124,0,0,0.06790123456790124,43.3888888888889,0)" xlink:href="#aL"/><use transform="matrix(0.06790123456790124,0,0,0.06790123456790124,58.259259259259274,0)" xlink:href="#aM"/><use transform="matrix(0.06790123456790124,0,0,0.06790123456790124,65.0493827160494,0)" xlink:href="#aN"/><use transform="matrix(0.06790123456790124,0,0,0.06790123456790124,78.62962962962965,0)" xlink:href="#aI"/><use transform="matrix(0.06790123456790124,0,0,0.06790123456790124,86.7098765432099,0)" xlink:href="#aJ"/><use transform="matrix(0.06172839506172839,0,0,0.06172839506172839,100.29012345679016,0)" xlink:href="#aB"/></g><path fill="#333" d="M135-143c-3-34-86-38-87 0 15 53 115 12 119 90S17 21 10-45l28-5c4 36 97 45 98 0-10-56-113-15-118-90-4-57 82-63 122-42 12 7 21 19 24 35" id="aO"/><path fill="#333" d="M59-47c-2 24 18 29 38 22v24C64 9 27 4 27-40v-127H5v-23h24l9-43h21v43h35v23H59v120" id="aP"/><path fill="#333" d="M114-163C36-179 61-72 57 0H25l-1-190h30c1 12-1 29 2 39 6-27 23-49 58-41v29" id="aQ"/><path fill="#333" d="M24-231v-30h32v30H24zM24 0v-190h32V0H24" id="aR"/><path fill="#333" d="M117-194c89-4 53 116 60 194h-32v-121c0-31-8-49-39-48C34-167 62-67 57 0H25l-1-190h30c1 10-1 24 2 32 11-22 29-35 61-36" id="aS"/><path fill="#333" d="M177-190C167-65 218 103 67 71c-23-6-38-20-44-43l32-5c15 47 100 32 89-28v-30C133-14 115 1 83 1 29 1 15-40 15-95c0-56 16-97 71-98 29-1 48 16 59 35 1-10 0-23 2-32h30zM94-22c36 0 50-32 50-73 0-42-14-75-50-75-39 0-46 34-46 75s6 73 46 73" id="aT"/><g id="f"><use transform="matrix(0.06172839506172839,0,0,0.06172839506172839,0,0)" xlink:href="#aO"/><use transform="matrix(0.06172839506172839,0,0,0.06172839506172839,11.11111111111111,0)" xlink:href="#aP"/><use transform="matrix(0.06172839506172839,0,0,0.06172839506172839,17.28395061728395,0)" xlink:href="#aQ"/><use transform="matrix(0.06172839506172839,0,0,0.06172839506172839,24.629629629629626,0)" xlink:href="#aR"/><use transform="matrix(0.06172839506172839,0,0,0.06172839506172839,29.50617283950617,0)" xlink:href="#aS"/><use transform="matrix(0.06172839506172839,0,0,0.06172839506172839,41.85185185185185,0)" xlink:href="#aT"/></g><path fill="#333" d="M88-194c31-1 46 15 58 34l-1-101h50l1 261h-48c-2-10 0-23-3-31C134-8 116 4 84 4 32 4 16-41 15-95c0-56 19-97 73-99zm17 164c33 0 40-30 41-66 1-37-9-64-41-64s-38 30-39 65c0 43 13 65 39 65" id="aU"/><path fill="#333" d="M190-63c-7 42-38 67-86 67-59 0-84-38-90-98-12-110 154-137 174-36l-49 2c-2-19-15-32-35-32-30 0-35 28-38 64-6 74 65 87 74 30" id="aV"/><path fill="#333" d="M25-224v-37h50v37H25zM25 0v-190h50V0H25" id="aW"/><path fill="#333" d="M135-194c53 0 70 44 70 98 0 56-19 98-73 100-31 1-45-17-59-34 3 33 2 69 2 105H25l-1-265h48c2 10 0 23 3 31 11-24 29-35 60-35zM114-30c33 0 39-31 40-66 0-38-9-64-40-64-56 0-55 130 0 130" id="aX"/><path fill="#333" d="M115-3C79 11 28 4 28-45v-112H4v-33h27l15-45h31v45h36v33H77v99c-1 23 16 31 38 25v30" id="aY"/><path fill="#333" d="M110-194c64 0 96 36 96 99 0 64-35 99-97 99-61 0-95-36-95-99 0-62 34-99 96-99zm-1 164c35 0 45-28 45-65 0-40-10-65-43-65-34 0-45 26-45 65 0 36 10 65 43 65" id="aZ"/><g id="g"><use transform="matrix(0.06172839506172839,0,0,0.06172839506172839,0,0)" xlink:href="#aU"/><use transform="matrix(0.06172839506172839,0,0,0.06172839506172839,13.518518518518517,0)" xlink:href="#aw"/><use transform="matrix(0.06172839506172839,0,0,0.06172839506172839,25.864197530864196,0)" xlink:href="#au"/><use transform="matrix(0.06172839506172839,0,0,0.06172839506172839,38.20987654320987,0)" xlink:href="#aV"/><use transform="matrix(0.06172839506172839,0,0,0.06172839506172839,50.55555555555555,0)" xlink:href="#ax"/><use transform="matrix(0.06172839506172839,0,0,0.06172839506172839,59.197530864197525,0)" xlink:href="#aW"/><use transform="matrix(0.06172839506172839,0,0,0.06172839506172839,65.37037037037037,0)" xlink:href="#aX"/><use transform="matrix(0.06172839506172839,0,0,0.06172839506172839,78.88888888888889,0)" xlink:href="#aY"/><use transform="matrix(0.06172839506172839,0,0,0.06172839506172839,86.23456790123457,0)" xlink:href="#aW"/><use transform="matrix(0.06172839506172839,0,0,0.06172839506172839,92.4074074074074,0)" xlink:href="#aZ"/><use transform="matrix(0.06172839506172839,0,0,0.06172839506172839,105.92592592592592,0)" xlink:href="#at"/><use transform="matrix(0.06172839506172839,0,0,0.06172839506172839,119.44444444444444,0)" xlink:href="#aB"/></g><g id="h"><use transform="matrix(0.06172839506172839,0,0,0.06172839506172839,0,0)" xlink:href="#aO"/><use transform="matrix(0.06172839506172839,0,0,0.06172839506172839,11.11111111111111,0)" xlink:href="#aP"/><use transform="matrix(0.06172839506172839,0,0,0.06172839506172839,17.28395061728395,0)" xlink:href="#aQ"/><use transform="matrix(0.06172839506172839,0,0,0.06172839506172839,24.629629629629626,0)" xlink:href="#aR"/><use transform="matrix(0.06172839506172839,0,0,0.06172839506172839,29.50617283950617,0)" xlink:href="#aS"/><use transform="matrix(0.06172839506172839,0,0,0.06172839506172839,41.85185185185185,0)" xlink:href="#aT"/></g><path fill="#333" d="M32 76v-337h29V76H32" id="ba"/><use transform="matrix(0.06172839506172839,0,0,0.06172839506172839,0,0)" xlink:href="#ba" id="i"/><path fill="#333" d="M84 4C-5 8 30-112 23-190h32v120c0 31 7 50 39 49 72-2 45-101 50-169h31l1 190h-30c-1-10 1-25-2-33-11 22-28 36-60 37" id="bb"/><path fill="#333" d="M24 0v-261h32V0H24" id="bc"/><g id="j"><use transform="matrix(0.06172839506172839,0,0,0.06172839506172839,0,0)" xlink:href="#aS"/><use transform="matrix(0.06172839506172839,0,0,0.06172839506172839,12.345679012345679,0)" xlink:href="#bb"/><use transform="matrix(0.06172839506172839,0,0,0.06172839506172839,24.691358024691358,0)" xlink:href="#bc"/><use transform="matrix(0.06172839506172839,0,0,0.06172839506172839,29.5679012345679,0)" xlink:href="#bc"/></g><path fill="#333" d="M220-157c-53 9-28 100-34 157h-49v-107c1-27-5-49-29-50C55-147 81-57 75 0H25l-1-190h47c2 12-1 28 3 38 10-53 101-56 108 0 13-22 24-43 59-42 82 1 51 116 57 194h-49v-107c-1-25-5-48-29-50" id="bd"/><path fill="#333" d="M25 0v-261h50V0H25" id="be"/><path fill="#333" d="M133-34C117-15 103 5 69 4 32 3 11-16 11-54c-1-60 55-63 116-61 1-26-3-47-28-47-18 1-26 9-28 27l-52-2c7-38 36-58 82-57s74 22 75 68l1 82c-1 14 12 18 25 15v27c-30 8-71 5-69-32zm-48 3c29 0 43-24 42-57-32 0-66-3-65 30 0 17 8 27 23 27" id="bf"/><path fill="#333" d="M35-132v-50h50v50H35zM35 0v-49h50V0H35" id="bg"/><g id="k"><use transform="matrix(0.06172839506172839,0,0,0.06172839506172839,0,0)" xlink:href="#aY"/><use transform="matrix(0.06172839506172839,0,0,0.06172839506172839,7.345679012345679,0)" xlink:href="#aw"/><use transform="matrix(0.06172839506172839,0,0,0.06172839506172839,19.691358024691358,0)" xlink:href="#bd"/><use transform="matrix(0.06172839506172839,0,0,0.06172839506172839,39.44444444444444,0)" xlink:href="#aX"/><use transform="matrix(0.06172839506172839,0,0,0.06172839506172839,52.96296296296296,0)" xlink:href="#be"/><use transform="matrix(0.06172839506172839,0,0,0.06172839506172839,59.135802469135804,0)" xlink:href="#bf"/><use transform="matrix(0.06172839506172839,0,0,0.06172839506172839,71.48148148148148,0)" xlink:href="#aY"/><use transform="matrix(0.06172839506172839,0,0,0.06172839506172839,78.82716049382717,0)" xlink:href="#aw"/><use transform="matrix(0.06172839506172839,0,0,0.06172839506172839,91.17283950617285,0)" xlink:href="#bg"/></g><path fill="#333" d="M30-248c118-7 216 8 213 122C240-48 200 0 122 0H30v-248zM63-27c89 8 146-16 146-99s-60-101-146-95v194" id="bh"/><path fill="#333" d="M141-36C126-15 110 5 73 4 37 3 15-17 15-53c-1-64 63-63 125-63 3-35-9-54-41-54-24 1-41 7-42 31l-33-3c5-37 33-52 76-52 45 0 72 20 72 64v82c-1 20 7 32 28 27v20c-31 9-61-2-59-35zM48-53c0 20 12 33 32 33 41-3 63-29 60-74-43 2-92-5-92 41" id="bi"/><path fill="#333" d="M100-194c63 0 86 42 84 106H49c0 40 14 67 53 68 26 1 43-12 49-29l28 8c-11 28-37 45-77 45C44 4 14-33 15-96c1-61 26-98 85-98zm52 81c6-60-76-77-97-28-3 7-6 17-6 28h103" id="bj"/><g id="l"><use transform="matrix(0.06172839506172839,0,0,0.06172839506172839,0,0)" xlink:href="#bh"/><use transform="matrix(0.06172839506172839,0,0,0.06172839506172839,15.987654320987653,0)" xlink:href="#bi"/><use transform="matrix(0.06172839506172839,0,0,0.06172839506172839,28.333333333333332,0)" xlink:href="#aP"/><use transform="matrix(0.06172839506172839,0,0,0.06172839506172839,34.50617283950617,0)" xlink:href="#bj"/></g><path fill="#333" d="M24-248c93 1 206-16 204 79-1 75-69 88-152 82V0H24v-248zm52 121c47 0 100 7 100-41 0-47-54-39-100-39v80" id="bk"/><path fill="#333" d="M85 4C-2 5 27-109 22-190h50c7 57-23 150 33 157 60-5 35-97 40-157h50l1 190h-47c-2-12 1-28-3-38-12 25-28 42-61 42" id="bl"/><g id="m"><use transform="matrix(0.06172839506172839,0,0,0.06172839506172839,0,0)" xlink:href="#aY"/><use transform="matrix(0.06172839506172839,0,0,0.06172839506172839,7.345679012345679,0)" xlink:href="#aw"/><use transform="matrix(0.06172839506172839,0,0,0.06172839506172839,19.691358024691358,0)" xlink:href="#bd"/><use transform="matrix(0.06172839506172839,0,0,0.06172839506172839,39.44444444444444,0)" xlink:href="#aX"/><use transform="matrix(0.06172839506172839,0,0,0.06172839506172839,52.96296296296296,0)" xlink:href="#be"/><use transform="matrix(0.06172839506172839,0,0,0.06172839506172839,59.135802469135804,0)" xlink:href="#bf"/><use transform="matrix(0.06172839506172839,0,0,0.06172839506172839,71.48148148148148,0)" xlink:href="#aY"/><use transform="matrix(0.06172839506172839,0,0,0.06172839506172839,78.82716049382717,0)" xlink:href="#aw"/><use transform="matrix(0.06172839506172839,0,0,0.06172839506172839,91.17283950617285,0)" xlink:href="#bk"/><use transform="matrix(0.06172839506172839,0,0,0.06172839506172839,105.98765432098766,0)" xlink:href="#aW"/><use transform="matrix(0.06172839506172839,0,0,0.06172839506172839,112.1604938271605,0)" xlink:href="#aV"/><use transform="matrix(0.06172839506172839,0,0,0.06172839506172839,124.50617283950618,0)" xlink:href="#aY"/><use transform="matrix(0.06172839506172839,0,0,0.06172839506172839,131.85185185185185,0)" xlink:href="#bl"/><use transform="matrix(0.06172839506172839,0,0,0.06172839506172839,145.37037037037035,0)" xlink:href="#ax"/><use transform="matrix(0.06172839506172839,0,0,0.06172839506172839,154.01234567901233,0)" xlink:href="#aw"/><use transform="matrix(0.06172839506172839,0,0,0.06172839506172839,166.358024691358,0)" xlink:href="#bg"/></g><g id="n"><use transform="matrix(0.06172839506172839,0,0,0.06172839506172839,0,0)" xlink:href="#aO"/><use transform="matrix(0.06172839506172839,0,0,0.06172839506172839,11.11111111111111,0)" xlink:href="#aP"/><use transform="matrix(0.06172839506172839,0,0,0.06172839506172839,17.28395061728395,0)" xlink:href="#aQ"/><use transform="matrix(0.06172839506172839,0,0,0.06172839506172839,24.629629629629626,0)" xlink:href="#aR"/><use transform="matrix(0.06172839506172839,0,0,0.06172839506172839,29.50617283950617,0)" xlink:href="#aS"/><use transform="matrix(0.06172839506172839,0,0,0.06172839506172839,41.85185185185185,0)" xlink:href="#aT"/></g><path fill="#333" d="M135-194c52 0 70 43 70 98 0 56-19 99-73 100-30 1-46-15-58-35L72 0H24l1-261h50v104c11-23 29-37 60-37zM114-30c31 0 40-27 40-66 0-37-7-63-39-63s-41 28-41 65c0 36 8 64 40 64" id="bm"/><path fill="#333" d="M24 0v-248h52V0H24" id="bn"/><g id="o"><use transform="matrix(0.06172839506172839,0,0,0.06172839506172839,0,0)" xlink:href="#bd"/><use transform="matrix(0.06172839506172839,0,0,0.06172839506172839,19.753086419753085,0)" xlink:href="#aw"/><use transform="matrix(0.06172839506172839,0,0,0.06172839506172839,32.098765432098766,0)" xlink:href="#bd"/><use transform="matrix(0.06172839506172839,0,0,0.06172839506172839,51.85185185185185,0)" xlink:href="#bm"/><use transform="matrix(0.06172839506172839,0,0,0.06172839506172839,65.37037037037037,0)" xlink:href="#aw"/><use transform="matrix(0.06172839506172839,0,0,0.06172839506172839,77.71604938271605,0)" xlink:href="#ax"/><use transform="matrix(0.06172839506172839,0,0,0.06172839506172839,86.35802469135803,0)" xlink:href="#au"/><use transform="matrix(0.06172839506172839,0,0,0.06172839506172839,98.70370370370371,0)" xlink:href="#bn"/><use transform="matrix(0.06172839506172839,0,0,0.06172839506172839,104.87654320987654,0)" xlink:href="#aU"/><use transform="matrix(0.06172839506172839,0,0,0.06172839506172839,118.39506172839506,0)" xlink:href="#bg"/></g><g id="p"><use transform="matrix(0.06172839506172839,0,0,0.06172839506172839,0,0)" xlink:href="#aO"/><use transform="matrix(0.06172839506172839,0,0,0.06172839506172839,11.11111111111111,0)" xlink:href="#aP"/><use transform="matrix(0.06172839506172839,0,0,0.06172839506172839,17.28395061728395,0)" xlink:href="#aQ"/><use transform="matrix(0.06172839506172839,0,0,0.06172839506172839,24.629629629629626,0)" xlink:href="#aR"/><use transform="matrix(0.06172839506172839,0,0,0.06172839506172839,29.50617283950617,0)" xlink:href="#aS"/><use transform="matrix(0.06172839506172839,0,0,0.06172839506172839,41.85185185185185,0)" xlink:href="#aT"/></g><path fill="#333" d="M144 0l-44-69L55 0H2l70-98-66-92h53l41 62 40-62h54l-67 91 71 99h-54" id="bo"/><g id="q"><use transform="matrix(0.06172839506172839,0,0,0.06172839506172839,0,0)" xlink:href="#aw"/><use transform="matrix(0.06172839506172839,0,0,0.06172839506172839,12.345679012345679,0)" xlink:href="#bo"/><use transform="matrix(0.06172839506172839,0,0,0.06172839506172839,24.691358024691358,0)" xlink:href="#bf"/><use transform="matrix(0.06172839506172839,0,0,0.06172839506172839,37.03703703703704,0)" xlink:href="#bd"/><use transform="matrix(0.06172839506172839,0,0,0.06172839506172839,56.79012345679013,0)" xlink:href="#aw"/><use transform="matrix(0.06172839506172839,0,0,0.06172839506172839,69.13580246913581,0)" xlink:href="#bn"/><use transform="matrix(0.06172839506172839,0,0,0.06172839506172839,75.30864197530865,0)" xlink:href="#aU"/><use transform="matrix(0.06172839506172839,0,0,0.06172839506172839,88.82716049382717,0)" xlink:href="#bg"/></g><g id="r"><use transform="matrix(0.06172839506172839,0,0,0.06172839506172839,0,0)" xlink:href="#aO"/><use transform="matrix(0.06172839506172839,0,0,0.06172839506172839,11.11111111111111,0)" xlink:href="#aP"/><use transform="matrix(0.06172839506172839,0,0,0.06172839506172839,17.28395061728395,0)" xlink:href="#aQ"/><use transform="matrix(0.06172839506172839,0,0,0.06172839506172839,24.629629629629626,0)" xlink:href="#aR"/><use transform="matrix(0.06172839506172839,0,0,0.06172839506172839,29.50617283950617,0)" xlink:href="#aS"/><use transform="matrix(0.06172839506172839,0,0,0.06172839506172839,41.85185185185185,0)" xlink:href="#aT"/></g><path fill="#333" d="M118-107v75H92v-75H18v-26h74v-75h26v75h74v26h-74" id="bp"/><use transform="matrix(0.06172839506172839,0,0,0.06172839506172839,0,0)" xlink:href="#bp" id="s"/><path fill="#282c33" d="M137-138c1-29-70-34-71-4 15 46 118 7 119 86 1 83-164 76-172 9l43-7c4 19 20 25 44 25 33 8 57-30 24-41C81-84 22-81 20-136c-2-80 154-74 161-7" id="bq"/><path fill="#282c33" d="M128 0H69L1-190h53L99-40l48-150h52" id="br"/><path fill="#282c33" d="M67-93c0 74 22 123 53 168H70C40 30 18-18 18-93s22-123 52-168h50c-32 44-53 94-53 168" id="bs"/><g id="t"><use transform="matrix(0.06790123456790124,0,0,0.06790123456790124,0,0)" xlink:href="#bq"/><use transform="matrix(0.06790123456790124,0,0,0.06790123456790124,13.580246913580249,0)" xlink:href="#aN"/><use transform="matrix(0.06790123456790124,0,0,0.06790123456790124,27.160493827160497,0)" xlink:href="#br"/><use transform="matrix(0.06790123456790124,0,0,0.06790123456790124,40.74074074074075,0)" xlink:href="#aJ"/><use transform="matrix(0.06790123456790124,0,0,0.06790123456790124,54.320987654320994,0)" xlink:href="#bs"/></g><path fill="#282c33" d="M102-93c0 74-22 123-52 168H0C30 29 54-18 53-93c0-74-22-123-53-168h50c30 45 52 94 52 168" id="bt"/><g id="u"><use transform="matrix(0.06790123456790124,0,0,0.06790123456790124,0,0)" xlink:href="#bt"/><use transform="matrix(0.06172839506172839,0,0,0.06172839506172839,8.080246913580249,0)" xlink:href="#aB"/></g><path fill="#333" d="M115-194c53 0 69 39 70 98 0 66-23 100-70 100C84 3 66-7 56-30L54 0H23l1-261h32v101c10-23 28-34 59-34zm-8 174c40 0 45-34 45-75 0-40-5-75-45-74-42 0-51 32-51 76 0 43 10 73 51 73" id="bu"/><path fill="#333" d="M100-194c62-1 85 37 85 99 1 63-27 99-86 99S16-35 15-95c0-66 28-99 85-99zM99-20c44 1 53-31 53-75 0-43-8-75-51-75s-53 32-53 75 10 74 51 75" id="bv"/><g id="v"><use transform="matrix(0.06172839506172839,0,0,0.06172839506172839,0,0)" xlink:href="#bu"/><use transform="matrix(0.06172839506172839,0,0,0.06172839506172839,12.345679012345679,0)" xlink:href="#bv"/><use transform="matrix(0.06172839506172839,0,0,0.06172839506172839,24.691358024691358,0)" xlink:href="#bv"/><use transform="matrix(0.06172839506172839,0,0,0.06172839506172839,37.03703703703704,0)" xlink:href="#bc"/><use transform="matrix(0.06172839506172839,0,0,0.06172839506172839,41.91358024691358,0)" xlink:href="#bj"/><use transform="matrix(0.06172839506172839,0,0,0.06172839506172839,54.25925925925926,0)" xlink:href="#bi"/><use transform="matrix(0.06172839506172839,0,0,0.06172839506172839,66.60493827160494,0)" xlink:href="#aS"/></g><g id="w"><use transform="matrix(0.06790123456790124,0,0,0.06790123456790124,0,0)" xlink:href="#br"/><use transform="matrix(0.06790123456790124,0,0,0.06790123456790124,13.580246913580249,0)" xlink:href="#aN"/><use transform="matrix(0.06790123456790124,0,0,0.06790123456790124,27.160493827160497,0)" xlink:href="#aM"/><use transform="matrix(0.06790123456790124,0,0,0.06790123456790124,33.95061728395062,0)" xlink:href="#az"/><use transform="matrix(0.06790123456790124,0,0,0.06790123456790124,40.74074074074075,0)" xlink:href="#aA"/><use transform="matrix(0.06790123456790124,0,0,0.06790123456790124,55.61111111111112,0)" xlink:href="#aN"/><use transform="matrix(0.06790123456790124,0,0,0.06790123456790124,69.19135802469137,0)" xlink:href="#aA"/><use transform="matrix(0.06790123456790124,0,0,0.06790123456790124,84.06172839506173,0)" xlink:href="#aJ"/><use transform="matrix(0.06790123456790124,0,0,0.06790123456790124,97.64197530864199,0)" xlink:href="#bs"/></g><g id="x"><use transform="matrix(0.06790123456790124,0,0,0.06790123456790124,0,0)" xlink:href="#bt"/><use transform="matrix(0.06172839506172839,0,0,0.06172839506172839,8.080246913580249,0)" xlink:href="#aB"/></g><g id="y"><use transform="matrix(0.06172839506172839,0,0,0.06172839506172839,0,0)" xlink:href="#bu"/><use transform="matrix(0.06172839506172839,0,0,0.06172839506172839,12.345679012345679,0)" xlink:href="#bv"/><use transform="matrix(0.06172839506172839,0,0,0.06172839506172839,24.691358024691358,0)" xlink:href="#bv"/><use transform="matrix(0.06172839506172839,0,0,0.06172839506172839,37.03703703703704,0)" xlink:href="#bc"/><use transform="matrix(0.06172839506172839,0,0,0.06172839506172839,41.91358024691358,0)" xlink:href="#bj"/><use transform="matrix(0.06172839506172839,0,0,0.06172839506172839,54.25925925925926,0)" xlink:href="#bi"/><use transform="matrix(0.06172839506172839,0,0,0.06172839506172839,66.60493827160494,0)" xlink:href="#aS"/></g><path fill="#282c33" d="M121-226c-27-7-43 5-38 36h38v33H83V0H34v-157H6v-33h28c-9-59 32-81 87-68v32" id="bw"/><path fill="#282c33" d="M135-194c87-1 58 113 63 194h-50c-7-57 23-157-34-157-59 0-34 97-39 157H25l-1-190h47c2 12-1 28 3 38 12-26 28-41 61-42" id="bx"/><path fill="#282c33" d="M140-251c80 0 125 45 125 126S219 4 139 4C58 4 15-44 15-125s44-126 125-126zm-1 214c52 0 73-35 73-88 0-50-21-86-72-86-52 0-73 35-73 86s22 88 72 88" id="by"/><path fill="#282c33" d="M141-36C126-15 110 5 73 4 37 3 15-17 15-53c-1-64 63-63 125-63 3-35-9-54-41-54-24 1-41 7-42 31l-33-3c5-37 33-52 76-52 45 0 72 20 72 64v82c-1 20 7 32 28 27v20c-31 9-61-2-59-35zM48-53c0 20 12 33 32 33 41-3 63-29 60-74-43 2-92-5-92 41" id="bz"/><path fill="#282c33" d="M206 0h-36l-40-164L89 0H53L-1-190h32L70-26l43-164h34l41 164 42-164h31" id="bA"/><path fill="#282c33" d="M100-194c63 0 86 42 84 106H49c0 40 14 67 53 68 26 1 43-12 49-29l28 8c-11 28-37 45-77 45C44 4 14-33 15-96c1-61 26-98 85-98zm52 81c6-60-76-77-97-28-3 7-6 17-6 28h103" id="bB"/><path fill="#282c33" d="M33-154v-36h34v36H33zM33 0v-36h34V0H33" id="bC"/><g id="z"><use transform="matrix(0.06790123456790124,0,0,0.06790123456790124,0,0)" xlink:href="#bw"/><use transform="matrix(0.06790123456790124,0,0,0.06790123456790124,8.080246913580249,0)" xlink:href="#az"/><use transform="matrix(0.06790123456790124,0,0,0.06790123456790124,14.870370370370374,0)" xlink:href="#bx"/><use transform="matrix(0.06790123456790124,0,0,0.06790123456790124,29.740740740740748,0)" xlink:href="#aA"/><use transform="matrix(0.06790123456790124,0,0,0.06790123456790124,44.611111111111114,0)" xlink:href="#by"/><use transform="matrix(0.06790123456790124,0,0,0.06790123456790124,63.62345679012347,0)" xlink:href="#bx"/><use transform="matrix(0.06790123456790124,0,0,0.06790123456790124,78.49382716049384,0)" xlink:href="#aJ"/><use transform="matrix(0.06790123456790124,0,0,0.06790123456790124,92.07407407407409,0)" xlink:href="#bs"/><use transform="matrix(0.06790123456790124,0,0,0.06790123456790124,100.15432098765434,0)" xlink:href="#bz"/><use transform="matrix(0.06790123456790124,0,0,0.06790123456790124,113.7345679012346,0)" xlink:href="#aG"/><use transform="matrix(0.06790123456790124,0,0,0.06790123456790124,127.31481481481485,0)" xlink:href="#aC"/><use transform="matrix(0.06790123456790124,0,0,0.06790123456790124,139.53703703703707,0)" xlink:href="#bA"/><use transform="matrix(0.06790123456790124,0,0,0.06790123456790124,157.1234567901235,0)" xlink:href="#bB"/><use transform="matrix(0.06790123456790124,0,0,0.06790123456790124,170.70370370370375,0)" xlink:href="#aE"/><use transform="matrix(0.06790123456790124,0,0,0.06790123456790124,178.783950617284,0)" xlink:href="#bC"/></g><path fill="#282c33" d="M205 0l-28-72H64L36 0H1l101-248h38L239 0h-34zm-38-99l-47-123c-12 45-31 82-46 123h93" id="bD"/><path fill="#282c33" d="M30-248c118-7 216 8 213 122C240-48 200 0 122 0H30v-248zM63-27c89 8 146-16 146-99s-60-101-146-95v194" id="bE"/><path fill="#282c33" d="M127-220V0H93v-220H8v-28h204v28h-85" id="bF"/><path fill="#282c33" d="M140-251c81 0 123 46 123 126C263-46 219 4 140 4 59 4 17-45 17-125s42-126 123-126zm0 227c63 0 89-41 89-101s-29-99-89-99c-61 0-89 39-89 99S79-25 140-24" id="bG"/><g id="A"><use transform="matrix(0.06790123456790124,0,0,0.06790123456790124,0,0)" xlink:href="#bD"/><use transform="matrix(0.06790123456790124,0,0,0.06790123456790124,16.296296296296298,0)" xlink:href="#aG"/><use transform="matrix(0.06790123456790124,0,0,0.06790123456790124,29.876543209876544,0)" xlink:href="#aC"/><use transform="matrix(0.06790123456790124,0,0,0.06790123456790124,42.098765432098766,0)" xlink:href="#bA"/><use transform="matrix(0.06790123456790124,0,0,0.06790123456790124,59.6851851851852,0)" xlink:href="#bB"/><use transform="matrix(0.06790123456790124,0,0,0.06790123456790124,73.26543209876544,0)" xlink:href="#aE"/><use transform="matrix(0.06790123456790124,0,0,0.06790123456790124,81.34567901234568,0)" xlink:href="#bE"/><use transform="matrix(0.06790123456790124,0,0,0.06790123456790124,98.93209876543212,0)" xlink:href="#bF"/><use transform="matrix(0.06790123456790124,0,0,0.06790123456790124,113.32716049382718,0)" xlink:href="#bG"/><use transform="matrix(0.06790123456790124,0,0,0.06790123456790124,132.33950617283952,0)" xlink:href="#bt"/><use transform="matrix(0.06172839506172839,0,0,0.06172839506172839,140.41975308641977,0)" xlink:href="#aB"/></g><path fill="#333" d="M205 0l-28-72H64L36 0H1l101-248h38L239 0h-34zm-38-99l-47-123c-12 45-31 82-46 123h93" id="bH"/><path fill="#333" d="M206 0h-36l-40-164L89 0H53L-1-190h32L70-26l43-164h34l41 164 42-164h31" id="bI"/><g id="B"><use transform="matrix(0.06172839506172839,0,0,0.06172839506172839,0,0)" xlink:href="#bH"/><use transform="matrix(0.06172839506172839,0,0,0.06172839506172839,14.814814814814813,0)" xlink:href="#aS"/><use transform="matrix(0.06172839506172839,0,0,0.06172839506172839,27.160493827160494,0)" xlink:href="#aO"/><use transform="matrix(0.06172839506172839,0,0,0.06172839506172839,38.27160493827161,0)" xlink:href="#bI"/><use transform="matrix(0.06172839506172839,0,0,0.06172839506172839,54.25925925925926,0)" xlink:href="#bj"/><use transform="matrix(0.06172839506172839,0,0,0.06172839506172839,66.60493827160494,0)" xlink:href="#aQ"/></g><g id="C"><use transform="matrix(0.06172839506172839,0,0,0.06172839506172839,0,0)" xlink:href="#aS"/><use transform="matrix(0.06172839506172839,0,0,0.06172839506172839,12.345679012345679,0)" xlink:href="#bb"/><use transform="matrix(0.06172839506172839,0,0,0.06172839506172839,24.691358024691358,0)" xlink:href="#bc"/><use transform="matrix(0.06172839506172839,0,0,0.06172839506172839,29.5679012345679,0)" xlink:href="#bc"/></g><path fill="#282c33" d="M230 0l2-204L168 0h-37L68-204 70 0H24v-248h70l56 185 57-185h69V0h-46" id="bJ"/><path fill="#282c33" d="M123 10C108 53 80 86 19 72V37c35 8 53-11 59-39L3-190h52l48 148c12-52 28-100 44-148h51" id="bK"/><g id="D"><use transform="matrix(0.06790123456790124,0,0,0.06790123456790124,0,0)" xlink:href="#bw"/><use transform="matrix(0.06790123456790124,0,0,0.06790123456790124,8.080246913580249,0)" xlink:href="#az"/><use transform="matrix(0.06790123456790124,0,0,0.06790123456790124,14.870370370370374,0)" xlink:href="#bx"/><use transform="matrix(0.06790123456790124,0,0,0.06790123456790124,29.740740740740748,0)" xlink:href="#aA"/><use transform="matrix(0.06790123456790124,0,0,0.06790123456790124,44.611111111111114,0)" xlink:href="#bJ"/><use transform="matrix(0.06790123456790124,0,0,0.06790123456790124,64.9135802469136,0)" xlink:href="#aN"/><use transform="matrix(0.06790123456790124,0,0,0.06790123456790124,78.49382716049385,0)" xlink:href="#bx"/><use transform="matrix(0.06790123456790124,0,0,0.06790123456790124,93.36419753086422,0)" xlink:href="#bK"/><use transform="matrix(0.06790123456790124,0,0,0.06790123456790124,106.94444444444447,0)" xlink:href="#bs"/><use transform="matrix(0.06790123456790124,0,0,0.06790123456790124,115.02469135802473,0)" xlink:href="#bz"/><use transform="matrix(0.06790123456790124,0,0,0.06790123456790124,128.60493827160496,0)" xlink:href="#aG"/><use transform="matrix(0.06790123456790124,0,0,0.06790123456790124,142.18518518518522,0)" xlink:href="#aC"/><use transform="matrix(0.06790123456790124,0,0,0.06790123456790124,154.40740740740745,0)" xlink:href="#bA"/><use transform="matrix(0.06790123456790124,0,0,0.06790123456790124,171.99382716049388,0)" xlink:href="#bB"/><use transform="matrix(0.06790123456790124,0,0,0.06790123456790124,185.57407407407413,0)" xlink:href="#aE"/><use transform="matrix(0.06790123456790124,0,0,0.06790123456790124,193.6543209876544,0)" xlink:href="#bC"/></g><g id="E"><use transform="matrix(0.06790123456790124,0,0,0.06790123456790124,0,0)" xlink:href="#bD"/><use transform="matrix(0.06790123456790124,0,0,0.06790123456790124,16.296296296296298,0)" xlink:href="#aG"/><use transform="matrix(0.06790123456790124,0,0,0.06790123456790124,29.876543209876544,0)" xlink:href="#aC"/><use transform="matrix(0.06790123456790124,0,0,0.06790123456790124,42.098765432098766,0)" xlink:href="#bA"/><use transform="matrix(0.06790123456790124,0,0,0.06790123456790124,59.6851851851852,0)" xlink:href="#bB"/><use transform="matrix(0.06790123456790124,0,0,0.06790123456790124,73.26543209876544,0)" xlink:href="#aE"/><use transform="matrix(0.06790123456790124,0,0,0.06790123456790124,81.34567901234568,0)" xlink:href="#bE"/><use transform="matrix(0.06790123456790124,0,0,0.06790123456790124,98.93209876543212,0)" xlink:href="#bF"/><use transform="matrix(0.06790123456790124,0,0,0.06790123456790124,113.32716049382718,0)" xlink:href="#bG"/><use transform="matrix(0.06790123456790124,0,0,0.06790123456790124,132.33950617283952,0)" xlink:href="#bt"/><use transform="matrix(0.06172839506172839,0,0,0.06172839506172839,140.41975308641977,0)" xlink:href="#bC"/></g><path fill="#333" d="M26 75v-336h71v23H56V52h41v23H26" id="bL"/><g id="F"><use transform="matrix(0.06172839506172839,0,0,0.06172839506172839,0,0)" xlink:href="#bH"/><use transform="matrix(0.06172839506172839,0,0,0.06172839506172839,14.814814814814813,0)" xlink:href="#aS"/><use transform="matrix(0.06172839506172839,0,0,0.06172839506172839,27.160493827160494,0)" xlink:href="#aO"/><use transform="matrix(0.06172839506172839,0,0,0.06172839506172839,38.27160493827161,0)" xlink:href="#bI"/><use transform="matrix(0.06172839506172839,0,0,0.06172839506172839,54.25925925925926,0)" xlink:href="#bj"/><use transform="matrix(0.06172839506172839,0,0,0.06172839506172839,66.60493827160494,0)" xlink:href="#aQ"/><use transform="matrix(0.06172839506172839,0,0,0.06172839506172839,73.95061728395062,0)" xlink:href="#bL"/></g><path fill="#333" d="M3 75V52h41v-290H3v-23h71V75H3" id="bM"/><use transform="matrix(0.06172839506172839,0,0,0.06172839506172839,0,0)" xlink:href="#bM" id="G"/><use transform="matrix(0.06172839506172839,0,0,0.06172839506172839,0,0)" xlink:href="#ba" id="H"/><path fill="#282c33" d="M135-150c-39-12-60 13-60 57V0H25l-1-190h47c2 13-1 29 3 40 6-28 27-53 61-41v41" id="bN"/><path fill="#282c33" d="M110-194c64 0 96 36 96 99 0 64-35 99-97 99-61 0-95-36-95-99 0-62 34-99 96-99zm-1 164c35 0 45-28 45-65 0-40-10-65-43-65-34 0-45 26-45 65 0 36 10 65 43 65" id="bO"/><g id="I"><use transform="matrix(0.06790123456790124,0,0,0.06790123456790124,0,0)" xlink:href="#aA"/><use transform="matrix(0.06790123456790124,0,0,0.06790123456790124,14.870370370370372,0)" xlink:href="#aJ"/><use transform="matrix(0.06790123456790124,0,0,0.06790123456790124,28.45061728395062,0)" xlink:href="#bq"/><use transform="matrix(0.06790123456790124,0,0,0.06790123456790124,42.03086419753087,0)" xlink:href="#aI"/><use transform="matrix(0.06790123456790124,0,0,0.06790123456790124,50.111111111111114,0)" xlink:href="#bN"/><use transform="matrix(0.06790123456790124,0,0,0.06790123456790124,59.61728395061729,0)" xlink:href="#bO"/><use transform="matrix(0.06790123456790124,0,0,0.06790123456790124,74.48765432098766,0)" xlink:href="#bK"/><use transform="matrix(0.06790123456790124,0,0,0.06790123456790124,88.06790123456791,0)" xlink:href="#bs"/><use transform="matrix(0.06790123456790124,0,0,0.06790123456790124,96.14814814814817,0)" xlink:href="#bz"/><use transform="matrix(0.06790123456790124,0,0,0.06790123456790124,109.72839506172842,0)" xlink:href="#aG"/><use transform="matrix(0.06790123456790124,0,0,0.06790123456790124,123.30864197530867,0)" xlink:href="#aC"/><use transform="matrix(0.06790123456790124,0,0,0.06790123456790124,135.5308641975309,0)" xlink:href="#bA"/><use transform="matrix(0.06790123456790124,0,0,0.06790123456790124,153.11728395061732,0)" xlink:href="#bB"/><use transform="matrix(0.06790123456790124,0,0,0.06790123456790124,166.69753086419757,0)" xlink:href="#aE"/><use transform="matrix(0.06790123456790124,0,0,0.06790123456790124,174.77777777777783,0)" xlink:href="#bC"/></g><g id="J"><use transform="matrix(0.06790123456790124,0,0,0.06790123456790124,0,0)" xlink:href="#bD"/><use transform="matrix(0.06790123456790124,0,0,0.06790123456790124,16.296296296296298,0)" xlink:href="#aG"/><use transform="matrix(0.06790123456790124,0,0,0.06790123456790124,29.876543209876544,0)" xlink:href="#aC"/><use transform="matrix(0.06790123456790124,0,0,0.06790123456790124,42.098765432098766,0)" xlink:href="#bA"/><use transform="matrix(0.06790123456790124,0,0,0.06790123456790124,59.6851851851852,0)" xlink:href="#bB"/><use transform="matrix(0.06790123456790124,0,0,0.06790123456790124,73.26543209876544,0)" xlink:href="#aE"/><use transform="matrix(0.06790123456790124,0,0,0.06790123456790124,81.34567901234568,0)" xlink:href="#bE"/><use transform="matrix(0.06790123456790124,0,0,0.06790123456790124,98.93209876543212,0)" xlink:href="#bF"/><use transform="matrix(0.06790123456790124,0,0,0.06790123456790124,113.32716049382718,0)" xlink:href="#bG"/><use transform="matrix(0.06790123456790124,0,0,0.06790123456790124,132.33950617283952,0)" xlink:href="#bt"/><use transform="matrix(0.06172839506172839,0,0,0.06172839506172839,140.41975308641977,0)" xlink:href="#bC"/></g><path fill="#282c33" d="M115-194c53 0 69 39 70 98 0 66-23 100-70 100C84 3 66-7 56-30L54 0H23l1-261h32v101c10-23 28-34 59-34zm-8 174c40 0 45-34 45-75 0-40-5-75-45-74-42 0-51 32-51 76 0 43 10 73 51 73" id="bP"/><path fill="#282c33" d="M100-194c62-1 85 37 85 99 1 63-27 99-86 99S16-35 15-95c0-66 28-99 85-99zM99-20c44 1 53-31 53-75 0-43-8-75-51-75s-53 32-53 75 10 74 51 75" id="bQ"/><path fill="#282c33" d="M24 0v-261h32V0H24" id="bR"/><g id="K"><use transform="matrix(0.06172839506172839,0,0,0.06172839506172839,0,0)" xlink:href="#bP"/><use transform="matrix(0.06172839506172839,0,0,0.06172839506172839,12.345679012345679,0)" xlink:href="#bQ"/><use transform="matrix(0.06172839506172839,0,0,0.06172839506172839,24.691358024691358,0)" xlink:href="#bQ"/><use transform="matrix(0.06172839506172839,0,0,0.06172839506172839,37.03703703703704,0)" xlink:href="#bR"/><use transform="matrix(0.06172839506172839,0,0,0.06172839506172839,41.91358024691358,0)" xlink:href="#bB"/><use transform="matrix(0.06172839506172839,0,0,0.06172839506172839,54.25925925925926,0)" xlink:href="#bz"/><use transform="matrix(0.06172839506172839,0,0,0.06172839506172839,66.60493827160494,0)" xlink:href="#aG"/></g><path fill="#333" d="M67-125c0 53 21 87 73 88 37 1 54-22 65-47l45 17C233-25 199 4 140 4 58 4 20-42 15-125 8-235 124-281 211-232c18 10 29 29 36 50l-46 12c-8-25-30-41-62-41-52 0-71 34-72 86" id="bS"/><g id="L"><use transform="matrix(0.06172839506172839,0,0,0.06172839506172839,0,0)" xlink:href="#as"/><use transform="matrix(0.06172839506172839,0,0,0.06172839506172839,15.987654320987653,0)" xlink:href="#at"/><use transform="matrix(0.06172839506172839,0,0,0.06172839506172839,29.50617283950617,0)" xlink:href="#au"/><use transform="matrix(0.06172839506172839,0,0,0.06172839506172839,41.85185185185185,0)" xlink:href="#av"/><use transform="matrix(0.06172839506172839,0,0,0.06172839506172839,59.1358024691358,0)" xlink:href="#aw"/><use transform="matrix(0.06172839506172839,0,0,0.06172839506172839,71.48148148148148,0)" xlink:href="#ax"/><use transform="matrix(0.06172839506172839,0,0,0.06172839506172839,80.12345679012346,0)" xlink:href="#bS"/><use transform="matrix(0.06172839506172839,0,0,0.06172839506172839,96.11111111111111,0)" xlink:href="#aZ"/><use transform="matrix(0.06172839506172839,0,0,0.06172839506172839,109.62962962962963,0)" xlink:href="#at"/><use transform="matrix(0.06172839506172839,0,0,0.06172839506172839,123.14814814814815,0)" xlink:href="#aY"/><use transform="matrix(0.06172839506172839,0,0,0.06172839506172839,130.49382716049382,0)" xlink:href="#ax"/><use transform="matrix(0.06172839506172839,0,0,0.06172839506172839,139.1358024691358,0)" xlink:href="#aZ"/><use transform="matrix(0.06172839506172839,0,0,0.06172839506172839,152.6543209876543,0)" xlink:href="#be"/><use transform="matrix(0.06172839506172839,0,0,0.06172839506172839,158.82716049382714,0)" xlink:href="#be"/><use transform="matrix(0.06172839506172839,0,0,0.06172839506172839,164.99999999999997,0)" xlink:href="#aw"/><use transform="matrix(0.06172839506172839,0,0,0.06172839506172839,177.34567901234564,0)" xlink:href="#ax"/></g><path fill="#282c33" d="M231 0h-52l-39-155L100 0H48L-1-190h46L77-45c9-52 24-97 36-145h53l37 145 32-145h46" id="bT"/><path fill="#282c33" d="M182-130c37 4 62 22 62 59C244 23 116-4 24 0v-248c84 5 203-23 205 63 0 31-19 50-47 55zM76-148c40-3 101 13 101-30 0-44-60-28-101-31v61zm0 110c48-3 116 14 116-37 0-48-69-32-116-35v72" id="bU"/><path fill="#282c33" d="M85 4C-2 5 27-109 22-190h50c7 57-23 150 33 157 60-5 35-97 40-157h50l1 190h-47c-2-12 1-28-3-38-12 25-28 42-61 42" id="bV"/><g id="M"><use transform="matrix(0.06790123456790124,0,0,0.06790123456790124,0,0)" xlink:href="#aN"/><use transform="matrix(0.06790123456790124,0,0,0.06790123456790124,13.580246913580249,0)" xlink:href="#bx"/><use transform="matrix(0.06790123456790124,0,0,0.06790123456790124,28.45061728395062,0)" xlink:href="#bq"/><use transform="matrix(0.06790123456790124,0,0,0.06790123456790124,42.03086419753087,0)" xlink:href="#bT"/><use transform="matrix(0.06790123456790124,0,0,0.06790123456790124,61.043209876543216,0)" xlink:href="#aJ"/><use transform="matrix(0.06790123456790124,0,0,0.06790123456790124,74.62345679012347,0)" xlink:href="#bN"/><use transform="matrix(0.06790123456790124,0,0,0.06790123456790124,84.12962962962965,0)" xlink:href="#bU"/><use transform="matrix(0.06790123456790124,0,0,0.06790123456790124,101.71604938271606,0)" xlink:href="#bV"/><use transform="matrix(0.06790123456790124,0,0,0.06790123456790124,116.58641975308643,0)" xlink:href="#az"/><use transform="matrix(0.06790123456790124,0,0,0.06790123456790124,123.37654320987656,0)" xlink:href="#aM"/><use transform="matrix(0.06790123456790124,0,0,0.06790123456790124,130.16666666666669,0)" xlink:href="#aA"/><use transform="matrix(0.06790123456790124,0,0,0.06790123456790124,145.03703703703707,0)" xlink:href="#aJ"/><use transform="matrix(0.06790123456790124,0,0,0.06790123456790124,158.61728395061732,0)" xlink:href="#bN"/><use transform="matrix(0.06172839506172839,0,0,0.06172839506172839,168.1234567901235,0)" xlink:href="#aB"/></g><path fill="#333" d="M160-131c35 5 61 23 61 61C221 17 115-2 30 0v-248c76 3 177-17 177 60 0 33-19 50-47 57zm-97-11c50-1 110 9 110-42 0-47-63-36-110-37v79zm0 115c55-2 124 14 124-45 0-56-70-42-124-44v89" id="bW"/><path fill="#333" d="M85-194c31 0 48 13 60 33l-1-100h32l1 261h-30c-2-10 0-23-3-31C134-8 116 4 85 4 32 4 16-35 15-94c0-66 23-100 70-100zm9 24c-40 0-46 34-46 75 0 40 6 74 45 74 42 0 51-32 51-76 0-42-9-74-50-73" id="bX"/><g id="N"><use transform="matrix(0.06172839506172839,0,0,0.06172839506172839,0,0)" xlink:href="#bH"/><use transform="matrix(0.06172839506172839,0,0,0.06172839506172839,14.814814814814813,0)" xlink:href="#aS"/><use transform="matrix(0.06172839506172839,0,0,0.06172839506172839,27.160493827160494,0)" xlink:href="#aO"/><use transform="matrix(0.06172839506172839,0,0,0.06172839506172839,38.27160493827161,0)" xlink:href="#bI"/><use transform="matrix(0.06172839506172839,0,0,0.06172839506172839,54.25925925925926,0)" xlink:href="#bj"/><use transform="matrix(0.06172839506172839,0,0,0.06172839506172839,66.60493827160494,0)" xlink:href="#aQ"/><use transform="matrix(0.06172839506172839,0,0,0.06172839506172839,73.95061728395062,0)" xlink:href="#bW"/><use transform="matrix(0.06172839506172839,0,0,0.06172839506172839,88.76543209876543,0)" xlink:href="#bb"/><use transform="matrix(0.06172839506172839,0,0,0.06172839506172839,101.11111111111111,0)" xlink:href="#aR"/><use transform="matrix(0.06172839506172839,0,0,0.06172839506172839,105.98765432098766,0)" xlink:href="#bc"/><use transform="matrix(0.06172839506172839,0,0,0.06172839506172839,110.8641975308642,0)" xlink:href="#bX"/><use transform="matrix(0.06172839506172839,0,0,0.06172839506172839,123.20987654320989,0)" xlink:href="#bj"/><use transform="matrix(0.06172839506172839,0,0,0.06172839506172839,135.55555555555557,0)" xlink:href="#aQ"/></g><path fill="#282c33" d="M145-31C134-9 116 4 85 4 32 4 16-35 15-94c0-59 17-99 70-100 32-1 48 14 60 33 0-11-1-24 2-32h30l-1 268h-32zM93-21c41 0 51-33 51-76s-8-73-50-73c-40 0-46 35-46 75s5 74 45 74" id="bY"/><g id="O"><use transform="matrix(0.06790123456790124,0,0,0.06790123456790124,0,0)" xlink:href="#bq"/><use transform="matrix(0.06790123456790124,0,0,0.06790123456790124,13.580246913580249,0)" xlink:href="#aI"/><use transform="matrix(0.06790123456790124,0,0,0.06790123456790124,21.660493827160497,0)" xlink:href="#bO"/><use transform="matrix(0.06790123456790124,0,0,0.06790123456790124,36.53086419753087,0)" xlink:href="#bN"/><use transform="matrix(0.06790123456790124,0,0,0.06790123456790124,46.03703703703704,0)" xlink:href="#aJ"/><use transform="matrix(0.06790123456790124,0,0,0.06790123456790124,59.617283950617285,0)" xlink:href="#bs"/><use transform="matrix(0.06790123456790124,0,0,0.06790123456790124,67.69753086419753,0)" xlink:href="#aE"/><use transform="matrix(0.06790123456790124,0,0,0.06790123456790124,75.77777777777779,0)" xlink:href="#bB"/><use transform="matrix(0.06790123456790124,0,0,0.06790123456790124,89.35802469135804,0)" xlink:href="#bY"/><use transform="matrix(0.06790123456790124,0,0,0.06790123456790124,102.9382716049383,0)" xlink:href="#bC"/></g><path fill="#282c33" d="M233-177c-1 41-23 64-60 70L243 0h-38l-65-103H63V0H30v-248c88 3 205-21 203 71zM63-129c60-2 137 13 137-47 0-61-80-42-137-45v92" id="bZ"/><path fill="#282c33" d="M84 4C-5 8 30-112 23-190h32v120c0 31 7 50 39 49 72-2 45-101 50-169h31l1 190h-30c-1-10 1-25-2-33-11 22-28 36-60 37" id="ca"/><path fill="#282c33" d="M68-38c1 34 0 65-14 84H32c9-13 17-26 17-46H33v-38h35" id="cb"/><g id="P"><use transform="matrix(0.06790123456790124,0,0,0.06790123456790124,0,0)" xlink:href="#bZ"/><use transform="matrix(0.06790123456790124,0,0,0.06790123456790124,17.58641975308642,0)" xlink:href="#bB"/><use transform="matrix(0.06790123456790124,0,0,0.06790123456790124,31.16666666666667,0)" xlink:href="#bY"/><use transform="matrix(0.06790123456790124,0,0,0.06790123456790124,44.74691358024692,0)" xlink:href="#ca"/><use transform="matrix(0.06790123456790124,0,0,0.06790123456790124,58.32716049382716,0)" xlink:href="#bB"/><use transform="matrix(0.06790123456790124,0,0,0.06790123456790124,71.90740740740742,0)" xlink:href="#aC"/><use transform="matrix(0.06790123456790124,0,0,0.06790123456790124,84.12962962962965,0)" xlink:href="#aD"/><use transform="matrix(0.06790123456790124,0,0,0.06790123456790124,90.91975308641979,0)" xlink:href="#cb"/></g><g id="Q"><use transform="matrix(0.06790123456790124,0,0,0.06790123456790124,0,0)" xlink:href="#aE"/><use transform="matrix(0.06790123456790124,0,0,0.06790123456790124,8.080246913580249,0)" xlink:href="#bB"/><use transform="matrix(0.06790123456790124,0,0,0.06790123456790124,21.660493827160497,0)" xlink:href="#aC"/><use transform="matrix(0.06790123456790124,0,0,0.06790123456790124,33.88271604938272,0)" xlink:href="#bC"/></g><path fill="#282c33" d="M115-194c55 1 70 41 70 98S169 2 115 4C84 4 66-9 55-30l1 105H24l-1-265h31l2 30c10-21 28-34 59-34zm-8 174c40 0 45-34 45-75s-6-73-45-74c-42 0-51 32-51 76 0 43 10 73 51 73" id="cc"/><g id="R"><use transform="matrix(0.06790123456790124,0,0,0.06790123456790124,0,0)" xlink:href="#bZ"/><use transform="matrix(0.06790123456790124,0,0,0.06790123456790124,17.58641975308642,0)" xlink:href="#bB"/><use transform="matrix(0.06790123456790124,0,0,0.06790123456790124,31.16666666666667,0)" xlink:href="#aC"/><use transform="matrix(0.06790123456790124,0,0,0.06790123456790124,43.38888888888889,0)" xlink:href="#cc"/><use transform="matrix(0.06790123456790124,0,0,0.06790123456790124,56.96913580246914,0)" xlink:href="#bQ"/><use transform="matrix(0.06790123456790124,0,0,0.06790123456790124,70.5493827160494,0)" xlink:href="#aG"/><use transform="matrix(0.06790123456790124,0,0,0.06790123456790124,84.12962962962965,0)" xlink:href="#aC"/><use transform="matrix(0.06790123456790124,0,0,0.06790123456790124,96.35185185185188,0)" xlink:href="#bB"/><use transform="matrix(0.06790123456790124,0,0,0.06790123456790124,109.93209876543213,0)" xlink:href="#bt"/><use transform="matrix(0.06172839506172839,0,0,0.06172839506172839,118.01234567901238,0)" xlink:href="#aB"/></g><path fill="#333" d="M108 0H70L1-190h34L89-25l56-165h34" id="cd"/><g id="S"><use transform="matrix(0.06172839506172839,0,0,0.06172839506172839,0,0)" xlink:href="#cd"/><use transform="matrix(0.06172839506172839,0,0,0.06172839506172839,11.11111111111111,0)" xlink:href="#bv"/><use transform="matrix(0.06172839506172839,0,0,0.06172839506172839,23.45679012345679,0)" xlink:href="#aR"/><use transform="matrix(0.06172839506172839,0,0,0.06172839506172839,28.333333333333336,0)" xlink:href="#bX"/></g><g id="T"><use transform="matrix(0.06790123456790124,0,0,0.06790123456790124,0,0)" xlink:href="#bV"/><use transform="matrix(0.06790123456790124,0,0,0.06790123456790124,14.870370370370372,0)" xlink:href="#aL"/><use transform="matrix(0.06790123456790124,0,0,0.06790123456790124,29.740740740740744,0)" xlink:href="#aA"/><use transform="matrix(0.06790123456790124,0,0,0.06790123456790124,44.611111111111114,0)" xlink:href="#aN"/><use transform="matrix(0.06790123456790124,0,0,0.06790123456790124,58.19135802469136,0)" xlink:href="#aI"/><use transform="matrix(0.06790123456790124,0,0,0.06790123456790124,66.27160493827161,0)" xlink:href="#aJ"/><use transform="matrix(0.06790123456790124,0,0,0.06790123456790124,79.85185185185186,0)" xlink:href="#bs"/><use transform="matrix(0.06790123456790124,0,0,0.06790123456790124,87.93209876543212,0)" xlink:href="#aE"/><use transform="matrix(0.06790123456790124,0,0,0.06790123456790124,96.01234567901237,0)" xlink:href="#bB"/><use transform="matrix(0.06790123456790124,0,0,0.06790123456790124,109.59259259259262,0)" xlink:href="#bY"/><use transform="matrix(0.06790123456790124,0,0,0.06790123456790124,123.17283950617288,0)" xlink:href="#bC"/></g><g id="U"><use transform="matrix(0.06790123456790124,0,0,0.06790123456790124,0,0)" xlink:href="#bZ"/><use transform="matrix(0.06790123456790124,0,0,0.06790123456790124,17.58641975308642,0)" xlink:href="#bB"/><use transform="matrix(0.06790123456790124,0,0,0.06790123456790124,31.16666666666667,0)" xlink:href="#aC"/><use transform="matrix(0.06790123456790124,0,0,0.06790123456790124,43.38888888888889,0)" xlink:href="#cc"/><use transform="matrix(0.06790123456790124,0,0,0.06790123456790124,56.96913580246914,0)" xlink:href="#bQ"/><use transform="matrix(0.06790123456790124,0,0,0.06790123456790124,70.5493827160494,0)" xlink:href="#aG"/><use transform="matrix(0.06790123456790124,0,0,0.06790123456790124,84.12962962962965,0)" xlink:href="#aC"/><use transform="matrix(0.06790123456790124,0,0,0.06790123456790124,96.35185185185188,0)" xlink:href="#bB"/><use transform="matrix(0.06790123456790124,0,0,0.06790123456790124,109.93209876543213,0)" xlink:href="#bt"/><use transform="matrix(0.05185185185185186,0,0,0.05185185185185186,118.0123456790124,0)" xlink:href="#bC"/></g><path fill="#282c33" d="M144 0l-44-69L55 0H2l70-98-66-92h53l41 62 40-62h54l-67 91 71 99h-54" id="ce"/><g id="V"><use transform="matrix(0.06790123456790124,0,0,0.06790123456790124,0,0)" xlink:href="#az"/><use transform="matrix(0.06790123456790124,0,0,0.06790123456790124,6.790123456790124,0)" xlink:href="#bx"/><use transform="matrix(0.06790123456790124,0,0,0.06790123456790124,21.660493827160497,0)" xlink:href="#aA"/><use transform="matrix(0.06790123456790124,0,0,0.06790123456790124,36.53086419753087,0)" xlink:href="#aJ"/><use transform="matrix(0.06790123456790124,0,0,0.06790123456790124,50.111111111111114,0)" xlink:href="#ce"/><use transform="matrix(0.06790123456790124,0,0,0.06790123456790124,63.69135802469136,0)" xlink:href="#bs"/><use transform="matrix(0.06790123456790124,0,0,0.06790123456790124,71.77160493827162,0)" xlink:href="#aE"/><use transform="matrix(0.06790123456790124,0,0,0.06790123456790124,79.85185185185186,0)" xlink:href="#bB"/><use transform="matrix(0.06790123456790124,0,0,0.06790123456790124,93.43209876543212,0)" xlink:href="#bY"/><use transform="matrix(0.06790123456790124,0,0,0.06790123456790124,107.01234567901238,0)" xlink:href="#bC"/></g><g id="W"><use transform="matrix(0.06790123456790124,0,0,0.06790123456790124,0,0)" xlink:href="#bZ"/><use transform="matrix(0.06790123456790124,0,0,0.06790123456790124,17.58641975308642,0)" xlink:href="#bB"/><use transform="matrix(0.06790123456790124,0,0,0.06790123456790124,31.16666666666667,0)" xlink:href="#aC"/><use transform="matrix(0.06790123456790124,0,0,0.06790123456790124,43.38888888888889,0)" xlink:href="#cc"/><use transform="matrix(0.06790123456790124,0,0,0.06790123456790124,56.96913580246914,0)" xlink:href="#bQ"/><use transform="matrix(0.06790123456790124,0,0,0.06790123456790124,70.5493827160494,0)" xlink:href="#aG"/><use transform="matrix(0.06790123456790124,0,0,0.06790123456790124,84.12962962962965,0)" xlink:href="#aC"/><use transform="matrix(0.06790123456790124,0,0,0.06790123456790124,96.35185185185188,0)" xlink:href="#bB"/><use transform="matrix(0.06790123456790124,0,0,0.06790123456790124,109.93209876543213,0)" xlink:href="#bt"/><use transform="matrix(0.06172839506172839,0,0,0.06172839506172839,118.01234567901238,0)" xlink:href="#aB"/></g><g id="X"><use transform="matrix(0.06172839506172839,0,0,0.06172839506172839,0,0)" xlink:href="#cd"/><use transform="matrix(0.06172839506172839,0,0,0.06172839506172839,11.11111111111111,0)" xlink:href="#bv"/><use transform="matrix(0.06172839506172839,0,0,0.06172839506172839,23.45679012345679,0)" xlink:href="#aR"/><use transform="matrix(0.06172839506172839,0,0,0.06172839506172839,28.333333333333336,0)" xlink:href="#bX"/></g><path fill="#282c33" d="M114-157C55-157 80-60 75 0H25v-261h50l-1 109c12-26 28-41 61-42 86-1 58 113 63 194h-50c-7-57 23-157-34-157" id="cf"/><g id="Y"><use transform="matrix(0.06790123456790124,0,0,0.06790123456790124,0,0)" xlink:href="#bq"/><use transform="matrix(0.06790123456790124,0,0,0.06790123456790124,13.580246913580249,0)" xlink:href="#cf"/><use transform="matrix(0.06790123456790124,0,0,0.06790123456790124,28.45061728395062,0)" xlink:href="#bO"/><use transform="matrix(0.06790123456790124,0,0,0.06790123456790124,43.320987654320994,0)" xlink:href="#bT"/><use transform="matrix(0.06790123456790124,0,0,0.06790123456790124,62.33333333333334,0)" xlink:href="#bs"/><use transform="matrix(0.06790123456790124,0,0,0.06790123456790124,70.4135802469136,0)" xlink:href="#aE"/><use transform="matrix(0.06790123456790124,0,0,0.06790123456790124,78.49382716049385,0)" xlink:href="#bB"/><use transform="matrix(0.06790123456790124,0,0,0.06790123456790124,92.0740740740741,0)" xlink:href="#bY"/><use transform="matrix(0.06790123456790124,0,0,0.06790123456790124,105.65432098765436,0)" xlink:href="#bC"/></g><g id="Z"><use transform="matrix(0.06790123456790124,0,0,0.06790123456790124,0,0)" xlink:href="#bZ"/><use transform="matrix(0.06790123456790124,0,0,0.06790123456790124,17.58641975308642,0)" xlink:href="#bB"/><use transform="matrix(0.06790123456790124,0,0,0.06790123456790124,31.16666666666667,0)" xlink:href="#aC"/><use transform="matrix(0.06790123456790124,0,0,0.06790123456790124,43.38888888888889,0)" xlink:href="#cc"/><use transform="matrix(0.06790123456790124,0,0,0.06790123456790124,56.96913580246914,0)" xlink:href="#bQ"/><use transform="matrix(0.06790123456790124,0,0,0.06790123456790124,70.5493827160494,0)" xlink:href="#aG"/><use transform="matrix(0.06790123456790124,0,0,0.06790123456790124,84.12962962962965,0)" xlink:href="#aC"/><use transform="matrix(0.06790123456790124,0,0,0.06790123456790124,96.35185185185188,0)" xlink:href="#bB"/><use transform="matrix(0.06790123456790124,0,0,0.06790123456790124,109.93209876543213,0)" xlink:href="#bt"/><use transform="matrix(0.06172839506172839,0,0,0.06172839506172839,118.01234567901238,0)" xlink:href="#aB"/></g><g id="aa"><use transform="matrix(0.06790123456790124,0,0,0.06790123456790124,0,0)" xlink:href="#aA"/><use transform="matrix(0.06790123456790124,0,0,0.06790123456790124,14.870370370370372,0)" xlink:href="#aJ"/><use transform="matrix(0.06790123456790124,0,0,0.06790123456790124,28.45061728395062,0)" xlink:href="#aM"/><use transform="matrix(0.06790123456790124,0,0,0.06790123456790124,35.24074074074075,0)" xlink:href="#aJ"/><use transform="matrix(0.06790123456790124,0,0,0.06790123456790124,48.820987654320994,0)" xlink:href="#aI"/><use transform="matrix(0.06790123456790124,0,0,0.06790123456790124,56.90123456790124,0)" xlink:href="#aJ"/><use transform="matrix(0.06790123456790124,0,0,0.06790123456790124,70.4814814814815,0)" xlink:href="#bs"/><use transform="matrix(0.06790123456790124,0,0,0.06790123456790124,78.56172839506175,0)" xlink:href="#aE"/><use transform="matrix(0.06790123456790124,0,0,0.06790123456790124,86.641975308642,0)" xlink:href="#bB"/><use transform="matrix(0.06790123456790124,0,0,0.06790123456790124,100.22222222222226,0)" xlink:href="#bY"/><use transform="matrix(0.06790123456790124,0,0,0.06790123456790124,113.80246913580251,0)" xlink:href="#bC"/></g><g id="ab"><use transform="matrix(0.06790123456790124,0,0,0.06790123456790124,0,0)" xlink:href="#bZ"/><use transform="matrix(0.06790123456790124,0,0,0.06790123456790124,17.58641975308642,0)" xlink:href="#bB"/><use transform="matrix(0.06790123456790124,0,0,0.06790123456790124,31.16666666666667,0)" xlink:href="#aC"/><use transform="matrix(0.06790123456790124,0,0,0.06790123456790124,43.38888888888889,0)" xlink:href="#cc"/><use transform="matrix(0.06790123456790124,0,0,0.06790123456790124,56.96913580246914,0)" xlink:href="#bQ"/><use transform="matrix(0.06790123456790124,0,0,0.06790123456790124,70.5493827160494,0)" xlink:href="#aG"/><use transform="matrix(0.06790123456790124,0,0,0.06790123456790124,84.12962962962965,0)" xlink:href="#aC"/><use transform="matrix(0.06790123456790124,0,0,0.06790123456790124,96.35185185185188,0)" xlink:href="#bB"/><use transform="matrix(0.06790123456790124,0,0,0.06790123456790124,109.93209876543213,0)" xlink:href="#bt"/><use transform="matrix(0.06172839506172839,0,0,0.06172839506172839,118.01234567901238,0)" xlink:href="#bC"/></g><path fill="#282c33" d="M108 0H70L1-190h34L89-25l56-165h34" id="cg"/><path fill="#282c33" d="M85-194c31 0 48 13 60 33l-1-100h32l1 261h-30c-2-10 0-23-3-31C134-8 116 4 85 4 32 4 16-35 15-94c0-66 23-100 70-100zm9 24c-40 0-46 34-46 75 0 40 6 74 45 74 42 0 51-32 51-76 0-42-9-74-50-73" id="ch"/><g id="ac"><use transform="matrix(0.06172839506172839,0,0,0.06172839506172839,0,0)" xlink:href="#cg"/><use transform="matrix(0.06172839506172839,0,0,0.06172839506172839,11.11111111111111,0)" xlink:href="#bQ"/><use transform="matrix(0.06172839506172839,0,0,0.06172839506172839,23.45679012345679,0)" xlink:href="#aF"/><use transform="matrix(0.06172839506172839,0,0,0.06172839506172839,28.333333333333336,0)" xlink:href="#ch"/></g><path fill="#333" d="M182-130c37 4 62 22 62 59C244 23 116-4 24 0v-248c84 5 203-23 205 63 0 31-19 50-47 55zM76-148c40-3 101 13 101-30 0-44-60-28-101-31v61zm0 110c48-3 116 14 116-37 0-48-69-32-116-35v72" id="ci"/><g id="ad"><use transform="matrix(0.06172839506172839,0,0,0.06172839506172839,0,0)" xlink:href="#as"/><use transform="matrix(0.06172839506172839,0,0,0.06172839506172839,15.987654320987653,0)" xlink:href="#at"/><use transform="matrix(0.06172839506172839,0,0,0.06172839506172839,29.50617283950617,0)" xlink:href="#au"/><use transform="matrix(0.06172839506172839,0,0,0.06172839506172839,41.85185185185185,0)" xlink:href="#av"/><use transform="matrix(0.06172839506172839,0,0,0.06172839506172839,59.1358024691358,0)" xlink:href="#aw"/><use transform="matrix(0.06172839506172839,0,0,0.06172839506172839,71.48148148148148,0)" xlink:href="#ax"/><use transform="matrix(0.06172839506172839,0,0,0.06172839506172839,80.12345679012346,0)" xlink:href="#ci"/><use transform="matrix(0.06172839506172839,0,0,0.06172839506172839,96.11111111111111,0)" xlink:href="#bl"/><use transform="matrix(0.06172839506172839,0,0,0.06172839506172839,109.62962962962963,0)" xlink:href="#aW"/><use transform="matrix(0.06172839506172839,0,0,0.06172839506172839,115.80246913580247,0)" xlink:href="#be"/><use transform="matrix(0.06172839506172839,0,0,0.06172839506172839,121.9753086419753,0)" xlink:href="#aU"/><use transform="matrix(0.06172839506172839,0,0,0.06172839506172839,135.49382716049382,0)" xlink:href="#aw"/><use transform="matrix(0.06172839506172839,0,0,0.06172839506172839,147.8395061728395,0)" xlink:href="#ax"/></g><use transform="matrix(0.06172839506172839,0,0,0.06172839506172839,0,0)" xlink:href="#ay" id="ae"/><path fill="#333" d="M-5 72V49h209v23H-5" id="cj"/><g id="af"><use transform="matrix(0.06172839506172839,0,0,0.06172839506172839,0,0)" xlink:href="#cj"/><use transform="matrix(0.06790123456790124,0,0,0.06790123456790124,12.345679012345679,0)" xlink:href="#az"/><use transform="matrix(0.06790123456790124,0,0,0.06790123456790124,19.135802469135804,0)" xlink:href="#aA"/><use transform="matrix(0.06172839506172839,0,0,0.06172839506172839,34.00617283950618,0)" xlink:href="#aB"/></g><g id="ag"><use transform="matrix(0.06172839506172839,0,0,0.06172839506172839,0,0)" xlink:href="#cj"/><use transform="matrix(0.06790123456790124,0,0,0.06790123456790124,12.345679012345679,0)" xlink:href="#aI"/><use transform="matrix(0.06790123456790124,0,0,0.06790123456790124,20.425925925925927,0)" xlink:href="#aJ"/><use transform="matrix(0.06790123456790124,0,0,0.06790123456790124,34.00617283950618,0)" xlink:href="#aK"/><use transform="matrix(0.06790123456790124,0,0,0.06790123456790124,55.73456790123458,0)" xlink:href="#aL"/><use transform="matrix(0.06790123456790124,0,0,0.06790123456790124,70.60493827160495,0)" xlink:href="#aM"/><use transform="matrix(0.06790123456790124,0,0,0.06790123456790124,77.39506172839508,0)" xlink:href="#aN"/><use transform="matrix(0.06790123456790124,0,0,0.06790123456790124,90.97530864197533,0)" xlink:href="#aI"/><use transform="matrix(0.06790123456790124,0,0,0.06790123456790124,99.05555555555559,0)" xlink:href="#aJ"/><use transform="matrix(0.06172839506172839,0,0,0.06172839506172839,112.63580246913584,0)" xlink:href="#aB"/></g><g id="ah"><use transform="matrix(0.06172839506172839,0,0,0.06172839506172839,0,0)" xlink:href="#cj"/><use transform="matrix(0.06172839506172839,0,0,0.06172839506172839,12.345679012345679,0)" xlink:href="#aU"/><use transform="matrix(0.06172839506172839,0,0,0.06172839506172839,25.864197530864196,0)" xlink:href="#aw"/><use transform="matrix(0.06172839506172839,0,0,0.06172839506172839,38.20987654320987,0)" xlink:href="#au"/><use transform="matrix(0.06172839506172839,0,0,0.06172839506172839,50.55555555555555,0)" xlink:href="#aV"/><use transform="matrix(0.06172839506172839,0,0,0.06172839506172839,62.90123456790123,0)" xlink:href="#ax"/><use transform="matrix(0.06172839506172839,0,0,0.06172839506172839,71.5432098765432,0)" xlink:href="#aW"/><use transform="matrix(0.06172839506172839,0,0,0.06172839506172839,77.71604938271604,0)" xlink:href="#aX"/><use transform="matrix(0.06172839506172839,0,0,0.06172839506172839,91.23456790123456,0)" xlink:href="#aY"/><use transform="matrix(0.06172839506172839,0,0,0.06172839506172839,98.58024691358024,0)" xlink:href="#aW"/><use transform="matrix(0.06172839506172839,0,0,0.06172839506172839,104.75308641975307,0)" xlink:href="#aZ"/><use transform="matrix(0.06172839506172839,0,0,0.06172839506172839,118.2716049382716,0)" xlink:href="#at"/><use transform="matrix(0.06172839506172839,0,0,0.06172839506172839,131.7901234567901,0)" xlink:href="#aB"/></g><g id="ai"><use transform="matrix(0.06172839506172839,0,0,0.06172839506172839,0,0)" xlink:href="#cj"/><use transform="matrix(0.06172839506172839,0,0,0.06172839506172839,12.345679012345679,0)" xlink:href="#aY"/><use transform="matrix(0.06172839506172839,0,0,0.06172839506172839,19.691358024691358,0)" xlink:href="#aw"/><use transform="matrix(0.06172839506172839,0,0,0.06172839506172839,32.03703703703704,0)" xlink:href="#bd"/><use transform="matrix(0.06172839506172839,0,0,0.06172839506172839,51.79012345679013,0)" xlink:href="#aX"/><use transform="matrix(0.06172839506172839,0,0,0.06172839506172839,65.30864197530865,0)" xlink:href="#be"/><use transform="matrix(0.06172839506172839,0,0,0.06172839506172839,71.48148148148148,0)" xlink:href="#bf"/><use transform="matrix(0.06172839506172839,0,0,0.06172839506172839,83.82716049382717,0)" xlink:href="#aY"/><use transform="matrix(0.06172839506172839,0,0,0.06172839506172839,91.17283950617285,0)" xlink:href="#aw"/><use transform="matrix(0.06172839506172839,0,0,0.06172839506172839,103.51851851851853,0)" xlink:href="#bg"/></g><g id="aj"><use transform="matrix(0.06172839506172839,0,0,0.06172839506172839,0,0)" xlink:href="#cj"/><use transform="matrix(0.06172839506172839,0,0,0.06172839506172839,12.345679012345679,0)" xlink:href="#aY"/><use transform="matrix(0.06172839506172839,0,0,0.06172839506172839,19.691358024691358,0)" xlink:href="#aw"/><use transform="matrix(0.06172839506172839,0,0,0.06172839506172839,32.03703703703704,0)" xlink:href="#bd"/><use transform="matrix(0.06172839506172839,0,0,0.06172839506172839,51.79012345679013,0)" xlink:href="#aX"/><use transform="matrix(0.06172839506172839,0,0,0.06172839506172839,65.30864197530865,0)" xlink:href="#be"/><use transform="matrix(0.06172839506172839,0,0,0.06172839506172839,71.48148148148148,0)" xlink:href="#bf"/><use transform="matrix(0.06172839506172839,0,0,0.06172839506172839,83.82716049382717,0)" xlink:href="#aY"/><use transform="matrix(0.06172839506172839,0,0,0.06172839506172839,91.17283950617285,0)" xlink:href="#aw"/><use transform="matrix(0.06172839506172839,0,0,0.06172839506172839,103.51851851851853,0)" xlink:href="#bk"/><use transform="matrix(0.06172839506172839,0,0,0.06172839506172839,118.33333333333334,0)" xlink:href="#aW"/><use transform="matrix(0.06172839506172839,0,0,0.06172839506172839,124.50617283950618,0)" xlink:href="#aV"/><use transform="matrix(0.06172839506172839,0,0,0.06172839506172839,136.85185185185185,0)" xlink:href="#aY"/><use transform="matrix(0.06172839506172839,0,0,0.06172839506172839,144.19753086419752,0)" xlink:href="#bl"/><use transform="matrix(0.06172839506172839,0,0,0.06172839506172839,157.71604938271602,0)" xlink:href="#ax"/><use transform="matrix(0.06172839506172839,0,0,0.06172839506172839,166.358024691358,0)" xlink:href="#aw"/><use transform="matrix(0.06172839506172839,0,0,0.06172839506172839,178.70370370370367,0)" xlink:href="#bg"/></g><g id="ak"><use transform="matrix(0.06172839506172839,0,0,0.06172839506172839,0,0)" xlink:href="#cj"/><use transform="matrix(0.06172839506172839,0,0,0.06172839506172839,12.345679012345679,0)" xlink:href="#bd"/><use transform="matrix(0.06172839506172839,0,0,0.06172839506172839,32.098765432098766,0)" xlink:href="#aw"/><use transform="matrix(0.06172839506172839,0,0,0.06172839506172839,44.44444444444444,0)" xlink:href="#bd"/><use transform="matrix(0.06172839506172839,0,0,0.06172839506172839,64.19753086419753,0)" xlink:href="#bm"/><use transform="matrix(0.06172839506172839,0,0,0.06172839506172839,77.71604938271605,0)" xlink:href="#aw"/><use transform="matrix(0.06172839506172839,0,0,0.06172839506172839,90.06172839506173,0)" xlink:href="#ax"/><use transform="matrix(0.06172839506172839,0,0,0.06172839506172839,98.70370370370371,0)" xlink:href="#au"/><use transform="matrix(0.06172839506172839,0,0,0.06172839506172839,111.0493827160494,0)" xlink:href="#bn"/><use transform="matrix(0.06172839506172839,0,0,0.06172839506172839,117.22222222222223,0)" xlink:href="#aU"/><use transform="matrix(0.06172839506172839,0,0,0.06172839506172839,130.74074074074073,0)" xlink:href="#bg"/></g><g id="al"><use transform="matrix(0.06172839506172839,0,0,0.06172839506172839,0,0)" xlink:href="#cj"/><use transform="matrix(0.06172839506172839,0,0,0.06172839506172839,12.345679012345679,0)" xlink:href="#aw"/><use transform="matrix(0.06172839506172839,0,0,0.06172839506172839,24.691358024691358,0)" xlink:href="#bo"/><use transform="matrix(0.06172839506172839,0,0,0.06172839506172839,37.03703703703704,0)" xlink:href="#bf"/><use transform="matrix(0.06172839506172839,0,0,0.06172839506172839,49.382716049382715,0)" xlink:href="#bd"/><use transform="matrix(0.06172839506172839,0,0,0.06172839506172839,69.1358024691358,0)" xlink:href="#aw"/><use transform="matrix(0.06172839506172839,0,0,0.06172839506172839,81.48148148148148,0)" xlink:href="#bn"/><use transform="matrix(0.06172839506172839,0,0,0.06172839506172839,87.65432098765432,0)" xlink:href="#aU"/><use transform="matrix(0.06172839506172839,0,0,0.06172839506172839,101.17283950617283,0)" xlink:href="#bg"/></g><g id="am"><use transform="matrix(0.06790123456790124,0,0,0.06790123456790124,0,0)" xlink:href="#bN"/><use transform="matrix(0.06790123456790124,0,0,0.06790123456790124,9.506172839506174,0)" xlink:href="#aJ"/><use transform="matrix(0.06790123456790124,0,0,0.06790123456790124,23.086419753086425,0)" xlink:href="#bq"/><use transform="matrix(0.06790123456790124,0,0,0.06790123456790124,36.66666666666667,0)" xlink:href="#aJ"/><use transform="matrix(0.06790123456790124,0,0,0.06790123456790124,50.24691358024692,0)" xlink:href="#aI"/><use transform="matrix(0.06790123456790124,0,0,0.06790123456790124,58.32716049382716,0)" xlink:href="#bs"/></g><g id="an"><use transform="matrix(0.06790123456790124,0,0,0.06790123456790124,0,0)" xlink:href="#bt"/><use transform="matrix(0.06172839506172839,0,0,0.06172839506172839,8.080246913580249,0)" xlink:href="#aB"/></g><path fill="#282c33" d="M135-194c52 0 70 43 70 98 0 56-19 99-73 100-30 1-46-15-58-35L72 0H24l1-261h50v104c11-23 29-37 60-37zM114-30c31 0 40-27 40-66 0-37-7-63-39-63s-41 28-41 65c0 36 8 64 40 64" id="ck"/><g id="ao"><use transform="matrix(0.06790123456790124,0,0,0.06790123456790124,0,0)" xlink:href="#ck"/><use transform="matrix(0.06790123456790124,0,0,0.06790123456790124,14.870370370370372,0)" xlink:href="#bV"/><use transform="matrix(0.06790123456790124,0,0,0.06790123456790124,29.740740740740744,0)" xlink:href="#az"/><use transform="matrix(0.06790123456790124,0,0,0.06790123456790124,36.53086419753087,0)" xlink:href="#aM"/><use transform="matrix(0.06790123456790124,0,0,0.06790123456790124,43.320987654320994,0)" xlink:href="#aA"/><use transform="matrix(0.06790123456790124,0,0,0.06790123456790124,58.19135802469137,0)" xlink:href="#bs"/></g><path fill="#282c33" d="M35-132v-50h50v50H35zM35 0v-49h50V0H35" id="cl"/><g id="ap"><use transform="matrix(0.06790123456790124,0,0,0.06790123456790124,0,0)" xlink:href="#bt"/><use transform="matrix(0.05185185185185186,0,0,0.05185185185185186,8.080246913580249,0)" xlink:href="#cl"/></g><g id="aq"><use transform="matrix(0.06790123456790124,0,0,0.06790123456790124,0,0)" xlink:href="#br"/><use transform="matrix(0.06790123456790124,0,0,0.06790123456790124,13.580246913580249,0)" xlink:href="#aN"/><use transform="matrix(0.06790123456790124,0,0,0.06790123456790124,27.160493827160497,0)" xlink:href="#aM"/><use transform="matrix(0.06790123456790124,0,0,0.06790123456790124,33.95061728395062,0)" xlink:href="#az"/><use transform="matrix(0.06790123456790124,0,0,0.06790123456790124,40.74074074074075,0)" xlink:href="#aA"/><use transform="matrix(0.06790123456790124,0,0,0.06790123456790124,55.61111111111112,0)" xlink:href="#aN"/><use transform="matrix(0.06790123456790124,0,0,0.06790123456790124,69.19135802469137,0)" xlink:href="#aI"/><use transform="matrix(0.06790123456790124,0,0,0.06790123456790124,77.27160493827162,0)" xlink:href="#aJ"/><use transform="matrix(0.06790123456790124,0,0,0.06790123456790124,90.85185185185188,0)" xlink:href="#bs"/><use transform="matrix(0.06790123456790124,0,0,0.06790123456790124,98.93209876543213,0)" xlink:href="#bt"/><use transform="matrix(0.06172839506172839,0,0,0.06172839506172839,107.01234567901238,0)" xlink:href="#aB"/></g><g id="ar"><use transform="matrix(0.06172839506172839,0,0,0.06172839506172839,0,0)" xlink:href="#bu"/><use transform="matrix(0.06172839506172839,0,0,0.06172839506172839,12.345679012345679,0)" xlink:href="#bv"/><use transform="matrix(0.06172839506172839,0,0,0.06172839506172839,24.691358024691358,0)" xlink:href="#bv"/><use transform="matrix(0.06172839506172839,0,0,0.06172839506172839,37.03703703703704,0)" xlink:href="#bc"/><use transform="matrix(0.06172839506172839,0,0,0.06172839506172839,41.91358024691358,0)" xlink:href="#bj"/><use transform="matrix(0.06172839506172839,0,0,0.06172839506172839,54.25925925925926,0)" xlink:href="#bi"/><use transform="matrix(0.06172839506172839,0,0,0.06172839506172839,66.60493827160494,0)" xlink:href="#aS"/></g></defs></g></svg>